<svg width="1440" height="80" viewBox="0 0 1440 80" fill="none" xmlns="http://www.w3.org/2000/svg">
<g clip-path="url(#clip0_553_4608)">
<rect width="1440" height="80" fill="#7AC87D"/>
<path fill-rule="evenodd" clip-rule="evenodd" d="M1334.98 25.7426C1333.76 22.6256 1335.52 19.2456 1338.64 18.3127L1420.88 -6.31273C1424 -7.24564 1427.33 -5.39072 1428.02 -2.11628C1428.08 -1.81163 1428.15 -1.48966 1428.22 -1.15165L1432.58 -2.45615C1437.14 -3.82119 1441.94 -1.23201 1443.3 3.32695L1449.01 22.3763C1450.37 26.9352 1447.78 31.7376 1443.22 33.1026L1427.89 37.6943C1422.26 50.1232 1409.15 57.5833 1396.35 61.4162C1381.71 65.8007 1364.12 66.4377 1352.22 55.2558C1351.48 54.5618 1350.76 53.8401 1350.08 53.0917C1346.57 49.2532 1343.39 43.9032 1340.82 38.8572C1338.24 33.7768 1336.19 28.8463 1334.98 25.7426ZM1429.57 33.0391C1429.66 32.7012 1429.75 32.3602 1429.83 32.016C1429.99 31.3706 1430.13 30.7206 1430.25 30.0677L1434.97 28.6541C1439.53 27.289 1442.12 22.4867 1440.76 17.9277L1438.86 11.578C1437.62 7.45585 1433.58 4.9441 1429.44 5.50964C1429.29 4.55709 1429.13 3.64162 1428.98 2.77358L1433.72 1.35371C1436.17 0.618695 1438.76 2.01287 1439.49 4.46769L1445.2 23.517C1445.93 25.9718 1444.54 28.5577 1442.08 29.2927L1429.57 33.0391ZM1430.02 9.44512C1432.23 9.16522 1434.39 10.5143 1435.05 12.7187L1436.95 19.0685C1437.68 21.5233 1436.29 24.1092 1433.83 24.8442L1430.81 25.7504C1431.12 21.3715 1430.84 16.5264 1430.34 12.0534C1430.24 11.1718 1430.14 10.3004 1430.02 9.44512ZM1340.02 22.9307C1339.51 23.0826 1339.31 23.5812 1339.47 23.986C1340.65 27.006 1342.63 31.7797 1345.12 36.6708C1347.63 41.5962 1350.57 46.4848 1353.64 49.8389C1354.23 50.4887 1354.86 51.1235 1355.52 51.7419C1365.5 61.1184 1380.84 61.0275 1394.97 56.7982C1409.09 52.5689 1421.96 44.2143 1425.15 30.8939C1425.36 30.0154 1425.53 29.1387 1425.67 28.2692C1426.39 23.7817 1426.16 18.0803 1425.55 12.5878C1424.94 7.13364 1423.98 2.05572 1423.3 -1.11675C1423.21 -1.542 1422.77 -1.84657 1422.26 -1.69471L1405.07 3.45224L1407.23 10.0132L1415.69 17.0153C1416.19 17.4327 1416.56 17.9899 1416.75 18.6167L1420.05 29.6618C1420.58 31.4153 1419.58 33.2623 1417.83 33.7873L1407.67 36.8293C1405.92 37.3543 1404.07 36.3585 1403.54 34.605L1400.24 23.56C1400.05 22.9331 1400.05 22.2648 1400.24 21.6392L1403.44 11.2013L1401.26 4.59341L1340.02 22.9307ZM1404.1 22.6115L1406.55 14.6133L1412.99 19.9497L1416.05 30.1676L1407.16 32.8293L1404.1 22.6115ZM1356.94 36.0995C1356.52 34.6995 1355.04 33.905 1353.64 34.3246C1352.24 34.7447 1351.44 36.2223 1351.86 37.6251L1354.4 36.8645C1351.86 37.6251 1351.86 37.6259 1351.86 37.6267L1351.86 37.6286L1351.87 37.633L1351.87 37.6448L1351.88 37.6798C1351.89 37.7082 1351.9 37.7464 1351.92 37.794C1351.95 37.8892 1351.99 38.0221 1352.05 38.1882C1352.16 38.5201 1352.33 38.9864 1352.56 39.5518C1353.02 40.679 1353.71 42.2194 1354.68 43.8832C1356.58 47.1481 1359.72 51.2045 1364.45 53.2678C1368 54.8191 1371.96 55.4935 1374.94 55.7942C1376.44 55.9465 1377.74 56.007 1378.66 56.0294C1379.12 56.0406 1379.49 56.0423 1379.75 56.0411C1379.88 56.0405 1379.99 56.0392 1380.06 56.0379L1380.15 56.0362L1380.17 56.0355L1380.18 56.0353L1380.18 56.0352L1380.18 56.0352C1380.18 56.0352 1380.18 56.0352 1380.11 53.5456L1380.18 56.0352C1381.65 55.9925 1382.8 54.7714 1382.76 53.3077C1382.71 51.8443 1381.49 50.6926 1380.03 50.7348L1380.03 50.7348L1380.02 50.735L1379.97 50.7361C1379.92 50.737 1379.84 50.738 1379.73 50.7385C1379.52 50.7395 1379.2 50.7382 1378.79 50.7283C1377.97 50.7085 1376.82 50.6547 1375.47 50.5185C1372.74 50.2423 1369.4 49.643 1366.57 48.4075C1363.34 46.9995 1360.92 44.0693 1359.26 41.2154C1358.45 39.8198 1357.86 38.5178 1357.48 37.5675C1357.29 37.0941 1357.15 36.7128 1357.06 36.4568L1357.06 36.4478C1357.01 36.3245 1356.98 36.2314 1356.97 36.1725C1356.96 36.1423 1356.95 36.1212 1356.95 36.1096L1356.94 36.1039L1356.65 36.1927L1354.4 36.8645C1355.7 36.4758 1356.34 36.2855 1356.65 36.1923C1356.94 36.1031 1356.94 36.1028 1356.94 36.1025L1356.94 36.1013L1356.94 36.0997L1356.94 36.0995Z" fill="white" fill-opacity="0.2"/>
<path d="M1300.97 46.9481C1300.97 46.9481 1309.34 55.2813 1305.34 70.4692C1303.59 77.1093 1299.25 81.2791 1294.91 83.8695C1288.21 87.8771 1279.98 86.3289 1272.77 83.3054L1268.53 81.5236C1261.33 78.5001 1254.46 73.7085 1252.62 66.1159C1251.44 61.2083 1251.37 55.1884 1254.89 49.2892C1262.92 35.7956 1274.74 35.9345 1274.74 35.9345M1303.85 45.7468L1273.58 33.0388M1294.84 53.5762C1294.84 53.5762 1297.24 58.6176 1297.34 62.0762C1297.47 66.5823 1293.84 73.0762 1293.84 73.0762M1266.96 37.4905C1266.96 37.4905 1265.8 34.5946 1262.63 30.8515C1260.17 27.9593 1258.41 26.796 1257.74 26.4166C1257.55 26.3121 1257.33 26.333 1257.15 26.452L1251.79 30.0579C1251.37 30.3391 1251.41 31.0128 1251.83 31.3022C1253.04 32.1561 1254.95 34.0129 1255.15 37.3518C1255.45 42.2963 1247.49 43.8021 1245.95 47.9494C1243.65 54.1436 1245.6 60.669 1250.88 64.4774M1306.84 52.5753C1306.84 52.5753 1314.34 49.5753 1318.84 52.5752C1323.34 55.5752 1324.5 58.8593 1324.34 63.5753C1324.13 69.7031 1320.82 74.7412 1314.84 76.0753C1311.36 76.8506 1305.84 74.5753 1305.84 74.5753M1279.34 34.5752C1279.34 34.5752 1279.06 35.5761 1279.84 33.0756C1282.34 25.0755 1305.34 35.0763 1300.34 42.5765M1286.73 29.5753C1288.11 21.8648 1302.84 28.0752 1299.34 34.5753" stroke="white" stroke-opacity="0.2" stroke-width="4" stroke-linecap="round"/>
<path fill-rule="evenodd" clip-rule="evenodd" d="M1200.42 49.6082C1201.57 46.6541 1199.9 43.4507 1196.95 42.5666L1119 19.2284C1116.05 18.3442 1112.89 20.1022 1112.24 23.2055C1112.17 23.4942 1112.11 23.7993 1112.05 24.1197L1107.92 22.8834C1103.6 21.5897 1099.04 24.0435 1097.75 28.3642L1092.35 46.4178C1091.05 50.7384 1093.51 55.2898 1097.83 56.5834L1112.36 60.9351C1117.7 72.7143 1130.12 79.7845 1142.25 83.4171C1156.13 87.5724 1172.79 88.176 1184.08 77.5787C1184.78 76.9209 1185.46 76.237 1186.1 75.5277C1189.43 71.8899 1192.44 66.8194 1194.88 62.0372C1197.33 57.2224 1199.27 52.5496 1200.42 49.6082ZM1110.77 56.5233C1110.68 56.203 1110.59 55.8798 1110.52 55.5536C1110.37 54.942 1110.24 54.3259 1110.12 53.7071L1105.65 52.3674C1101.32 51.0737 1098.87 46.5224 1100.16 42.2018L1101.97 36.1839C1103.14 32.2773 1106.97 29.8968 1110.89 30.4328C1111.03 29.53 1111.18 28.6624 1111.33 27.8397L1106.84 26.4941C1104.51 25.7975 1102.06 27.1188 1101.36 29.4453L1095.96 47.4989C1095.26 49.8254 1096.58 52.2761 1098.91 52.9727L1110.77 56.5233ZM1110.34 34.1626C1108.24 33.8973 1106.2 35.1759 1105.58 37.265L1103.78 43.2829C1103.08 45.6094 1104.4 48.0601 1106.73 48.7567L1109.6 49.6155C1109.29 45.4656 1109.56 40.8737 1110.03 36.6345C1110.13 35.799 1110.23 34.9731 1110.34 34.1626ZM1195.64 46.9432C1196.12 47.0871 1196.31 47.5598 1196.16 47.9434C1195.04 50.8055 1193.16 55.3297 1190.8 59.9651C1188.43 64.6331 1185.64 69.2661 1182.73 72.4449C1182.17 73.0607 1181.57 73.6624 1180.95 74.2485C1171.49 83.1348 1156.95 83.0486 1143.56 79.0404C1130.17 75.0322 1117.98 67.1143 1114.96 54.4902C1114.76 53.6576 1114.59 52.8267 1114.46 52.0027C1113.78 47.7497 1113.99 42.3464 1114.58 37.141C1115.15 31.9719 1116.07 27.1594 1116.71 24.1528C1116.79 23.7497 1117.21 23.4611 1117.69 23.605L1133.98 28.4829L1131.93 34.7009L1123.93 41.337C1123.45 41.7326 1123.1 42.2607 1122.92 42.8548L1119.79 53.3225C1119.29 54.9843 1120.23 56.7348 1121.89 57.2324L1131.52 60.1153C1133.18 60.6129 1134.93 59.6691 1135.43 58.0073L1138.57 47.5396C1138.74 46.9456 1138.74 46.3122 1138.56 45.7192L1135.53 35.8269L1137.6 29.5644L1195.64 46.9432ZM1134.9 46.6407L1132.58 39.0606L1126.48 44.1181L1123.58 53.8018L1132 56.3244L1134.9 46.6407ZM1179.6 59.4237C1180 58.0968 1181.4 57.3438 1182.73 57.7416C1184.05 58.1397 1184.81 59.5401 1184.41 60.8695L1182 60.1487C1184.41 60.8695 1184.41 60.8703 1184.41 60.8711L1184.41 60.8728L1184.41 60.877L1184.41 60.8882L1184.4 60.9214C1184.39 60.9483 1184.38 60.9845 1184.36 61.0296C1184.33 61.1199 1184.29 61.2458 1184.24 61.4032C1184.13 61.7177 1183.97 62.1596 1183.75 62.6955C1183.32 63.7638 1182.66 65.2237 1181.74 66.8005C1179.94 69.8947 1176.97 73.7391 1172.49 75.6946C1169.12 77.1648 1165.36 77.8039 1162.55 78.0889C1161.12 78.2333 1159.89 78.2906 1159.02 78.3118C1158.58 78.3225 1158.23 78.3241 1157.98 78.3229C1157.86 78.3224 1157.76 78.3211 1157.69 78.3199L1157.61 78.3182L1157.58 78.3177L1157.58 78.3174L1157.57 78.3174L1157.57 78.3173C1157.57 78.3173 1157.57 78.3173 1157.64 75.8056L1157.57 78.3173C1156.18 78.2769 1155.09 77.1196 1155.13 75.7324C1155.17 74.3455 1156.33 73.2539 1157.72 73.2939L1157.72 73.294L1157.73 73.2942L1157.78 73.2952C1157.82 73.296 1157.9 73.297 1158 73.2975C1158.2 73.2985 1158.51 73.2972 1158.89 73.2878C1159.67 73.2691 1160.76 73.218 1162.04 73.089C1164.63 72.8272 1167.79 72.2593 1170.48 71.0883C1173.54 69.7539 1175.83 66.9769 1177.4 64.2722C1178.17 62.9495 1178.73 61.7156 1179.09 60.8149C1179.27 60.3663 1179.4 60.0049 1179.49 59.7623C1179.53 59.6412 1179.56 59.55 1179.58 59.4929C1179.59 59.4643 1179.59 59.4442 1179.6 59.4332L1179.6 59.4278L1182 60.1487C1179.6 59.4278 1179.6 59.4271 1179.6 59.4265L1179.6 59.4254L1179.6 59.4239L1179.6 59.4237Z" fill="white" fill-opacity="0.2"/>
<path d="M992.956 23.3618C992.956 23.3618 983.415 32.9575 988.108 50.314C990.16 57.9022 995.169 62.6452 1000.16 65.5804C1007.87 70.1214 1017.3 68.2928 1025.54 64.7826L1030.4 62.714C1038.63 59.2038 1046.48 53.6721 1048.53 44.969C1049.86 39.3437 1049.89 32.4528 1045.82 25.7247C1036.51 10.3352 1022.97 10.5753 1022.97 10.5753M989.647 22.0066L1024.27 7.25297M1000.04 30.9062C1000.04 30.9062 997.319 36.6931 997.227 40.6524C997.107 45.811 1001.32 53.219 1001.32 53.219M1031.89 12.3029C1031.89 12.3029 1033.2 8.98031 1036.82 4.67417C1039.61 1.34686 1041.63 0.00328514 1042.4 -0.435606C1042.61 -0.556542 1042.87 -0.534209 1043.07 -0.399162L1049.24 3.69128C1049.72 4.01027 1049.68 4.7817 1049.21 5.11578C1047.82 6.1015 1045.64 8.23997 1045.44 12.063C1045.13 17.7246 1054.26 19.3935 1056.05 24.1298C1058.74 31.2039 1056.55 38.6862 1050.51 43.0816M986.267 29.843C986.267 29.843 977.645 26.4607 972.505 29.9254C967.366 33.39 966.057 37.157 966.274 42.5538C966.555 49.5663 970.382 55.3102 977.254 56.796C981.247 57.6596 987.564 55.0173 987.564 55.0173M1017.68 9.0511C1017.68 9.0511 1018.01 10.1948 1017.1 7.33807C1014.17 -1.80161 987.868 9.80328 993.654 18.3537M1009.17 3.37896C1007.54 -5.43693 990.686 1.77266 994.744 9.18866" stroke="white" stroke-opacity="0.2" stroke-width="4" stroke-linecap="round"/>
<path fill-rule="evenodd" clip-rule="evenodd" d="M269.389 26.2963C268.17 23.1793 269.933 19.7993 273.048 18.8664L355.293 -5.75902C358.408 -6.69193 361.739 -4.837 362.433 -1.56257C362.497 -1.25792 362.565 -0.935951 362.634 -0.597936L366.991 -1.90244C371.55 -3.26748 376.352 -0.678295 377.717 3.88066L383.421 22.93C384.786 27.4889 382.197 32.2913 377.638 33.6563L362.303 38.248C356.668 50.6769 343.564 58.137 330.763 61.9699C316.12 66.3544 298.537 66.9914 286.631 55.8095C285.892 55.1155 285.175 54.3938 284.491 53.6455C280.981 49.807 277.804 44.4569 275.236 39.4109C272.65 34.3305 270.604 29.4 269.389 26.2963ZM363.985 33.5928C364.078 33.2549 364.165 32.9139 364.248 32.5697C364.402 31.9244 364.542 31.2743 364.666 30.6214L369.387 29.2078C373.946 27.8427 376.535 23.0404 375.17 18.4814L373.269 12.1317C372.035 8.00956 367.99 5.49781 363.856 6.06335C363.703 5.1108 363.546 4.19533 363.39 3.32729L368.132 1.90742C370.587 1.17241 373.172 2.56658 373.907 5.0214L379.611 24.0707C380.346 26.5256 378.952 29.1114 376.497 29.8464L363.985 33.5928ZM364.436 9.99883C366.646 9.71894 368.799 11.068 369.459 13.2724L371.36 19.6222C372.095 22.077 370.701 24.6629 368.246 25.3979L365.22 26.3041C365.538 21.9253 365.255 17.0801 364.756 12.6071C364.657 11.7255 364.55 10.8541 364.436 9.99883ZM274.431 23.4844C273.924 23.6363 273.72 24.1349 273.878 24.5398C275.06 27.5597 277.043 32.3334 279.532 37.2245C282.039 42.1499 284.981 47.0385 288.048 50.3926C288.642 51.0424 289.273 51.6772 289.931 52.2956C299.915 61.6721 315.255 61.5812 329.38 57.3519C343.505 53.1226 356.372 44.768 359.56 31.4477C359.77 30.5691 359.948 29.6924 360.087 28.8229C360.806 24.3354 360.577 18.634 359.965 13.1415C359.356 7.68735 358.389 2.60943 357.717 -0.563039C357.627 -0.98829 357.183 -1.29286 356.675 -1.141L339.486 4.00595L341.647 10.5669L350.099 17.569C350.603 17.9864 350.972 18.5436 351.16 19.1704L354.467 30.2155C354.992 31.969 353.996 33.816 352.242 34.341L342.083 37.383C340.329 37.908 338.482 36.9122 337.957 35.1588L334.65 24.1137C334.462 23.4869 334.464 22.8185 334.656 22.1929L337.851 11.755L335.674 5.14712L274.431 23.4844ZM338.518 23.1652L340.966 15.167L347.407 20.5034L350.467 30.7213L341.577 33.383L338.518 23.1652ZM291.355 36.6532C290.934 35.2532 289.457 34.4587 288.056 34.8783C286.653 35.2984 285.857 36.776 286.277 38.1788L288.817 37.4182C286.277 38.1788 286.277 38.1796 286.277 38.1804L286.278 38.1823L286.279 38.1867L286.283 38.1985L286.294 38.2335C286.302 38.2619 286.314 38.3001 286.33 38.3477C286.36 38.443 286.404 38.5758 286.461 38.7419C286.576 39.0738 286.746 39.5401 286.974 40.1055C287.429 41.2327 288.124 42.7731 289.093 44.4369C290.993 47.7018 294.129 51.7582 298.86 53.8216C302.416 55.3728 306.376 56.0472 309.349 56.3479C310.854 56.5002 312.149 56.5607 313.073 56.5831C313.536 56.5943 313.907 56.596 314.167 56.5948C314.298 56.5942 314.4 56.5929 314.473 56.5916L314.559 56.5899L314.584 56.5893L314.592 56.589L314.595 56.589L314.597 56.5889C314.597 56.5889 314.598 56.5889 314.525 54.0993L314.598 56.5889C316.061 56.5462 317.213 55.3251 317.171 53.8614C317.128 52.398 315.907 51.2463 314.444 51.2885L314.443 51.2885L314.435 51.2887L314.381 51.2898C314.33 51.2907 314.25 51.2917 314.143 51.2922C313.929 51.2932 313.609 51.2919 313.202 51.282C312.386 51.2622 311.229 51.2084 309.883 51.0722C307.152 50.796 303.812 50.1967 300.98 48.9612C297.752 47.5532 295.337 44.623 293.675 41.7691C292.863 40.3735 292.275 39.0715 291.891 38.1212C291.7 37.6478 291.562 37.2665 291.473 37.0105L291.47 37.0015C291.428 36.8782 291.397 36.7851 291.378 36.7262C291.369 36.696 291.362 36.6749 291.358 36.6633L291.357 36.6576L291.06 36.7464L288.817 37.4182C290.115 37.0295 290.749 36.8393 291.06 36.746C291.356 36.6569 291.356 36.6565 291.356 36.6562L291.356 36.655L291.355 36.6535L291.355 36.6532Z" fill="white" fill-opacity="0.2"/>
<path d="M210.971 44.9481C210.971 44.9481 219.341 53.2813 215.339 68.4692C213.589 75.1093 209.247 79.2791 204.913 81.8695C198.208 85.8771 189.977 84.3289 182.775 81.3054L178.53 79.5236C171.328 76.5001 164.458 71.7085 162.623 64.1159C161.437 59.2083 161.372 53.1884 164.886 47.2892C172.925 33.7956 184.736 33.9345 184.736 33.9345M213.849 43.7468L183.578 31.0388M204.837 51.5762C204.837 51.5762 207.236 56.6176 207.337 60.0762C207.469 64.5823 203.837 71.0762 203.837 71.0762M176.961 35.4905C176.961 35.4905 175.803 32.5946 172.627 28.8515C170.173 25.9593 168.41 24.796 167.735 24.4166C167.549 24.3121 167.326 24.333 167.149 24.452L161.79 28.0579C161.372 28.3391 161.415 29.0128 161.827 29.3022C163.043 30.1561 164.949 32.0129 165.15 35.3518C165.449 40.2963 157.495 41.8021 155.954 45.9494C153.653 52.1436 155.599 58.669 160.884 62.4774M216.838 50.5753C216.838 50.5753 224.338 47.5753 228.838 50.5752C233.338 53.5752 234.499 56.8593 234.338 61.5753C234.129 67.7031 230.822 72.7412 224.838 74.0753C221.36 74.8506 215.838 72.5753 215.838 72.5753M189.338 32.5752C189.338 32.5752 189.057 33.5761 189.838 31.0756C192.338 23.0755 215.337 33.0763 210.337 40.5765M196.729 27.5753C198.108 19.8648 212.838 26.0752 209.338 32.5753" stroke="white" stroke-opacity="0.2" stroke-width="4" stroke-linecap="round"/>
<path fill-rule="evenodd" clip-rule="evenodd" d="M120.416 50.6082C121.572 47.6541 119.901 44.4507 116.948 43.5666L39.0031 20.2284C36.0502 19.3442 32.8938 21.1022 32.2361 24.2055C32.1749 24.4942 32.1111 24.7993 32.0454 25.1197L27.9163 23.8834C23.5956 22.5897 19.0443 25.0435 17.7506 29.3642L12.3451 47.4178C11.0514 51.7384 13.5052 56.2898 17.8259 57.5834L32.3596 61.9351C37.6993 73.7143 50.1183 80.7845 62.2504 84.4171C76.1284 88.5724 92.792 89.176 104.076 78.5787C104.776 77.9209 105.456 77.237 106.104 76.5277C109.431 72.8899 112.441 67.8194 114.875 63.0372C117.326 58.2224 119.265 53.5496 120.416 50.6082ZM30.7652 57.5233C30.6773 57.203 30.5942 56.8798 30.5161 56.5536C30.3697 55.942 30.2369 55.3259 30.12 54.7071L25.6456 53.3674C21.325 52.0737 18.8711 47.5224 20.1648 43.2018L21.9667 37.1839C23.1364 33.2773 26.9694 30.8968 30.887 31.4328C31.0327 30.53 31.1816 29.6624 31.3294 28.8397L26.8352 27.4941C24.5087 26.7975 22.058 28.1188 21.3614 30.4453L15.9558 48.4989C15.2592 50.8254 16.5805 53.2761 18.907 53.9727L30.7652 57.5233ZM30.3372 35.1626C28.2429 34.8973 26.2029 36.1759 25.5774 38.265L23.7755 44.2829C23.0789 46.6094 24.4002 49.0601 26.7267 49.7567L29.5951 50.6155C29.2936 46.4656 29.5618 41.8737 30.0347 37.6345C30.1279 36.799 30.2296 35.9731 30.3372 35.1626ZM115.638 47.9432C116.119 48.0871 116.312 48.5598 116.162 48.9434C115.042 51.8055 113.163 56.3297 110.804 60.9651C108.428 65.6331 105.639 70.2661 102.733 73.4449C102.169 74.0607 101.572 74.6624 100.948 75.2485C91.4862 84.1348 76.9475 84.0486 63.5609 80.0404C50.1742 76.0322 37.9805 68.1143 34.9592 55.4902C34.76 54.6576 34.5916 53.8267 34.4596 53.0027C33.7783 48.7497 33.9945 43.3464 34.5752 38.141C35.1518 32.9719 36.0681 28.1594 36.7054 25.1528C36.7908 24.7497 37.212 24.4611 37.6927 24.605L53.9838 29.4829L51.935 35.7009L43.9251 42.337C43.4476 42.7326 43.0978 43.2607 42.92 43.8548L39.7857 54.3225C39.2882 55.9843 40.232 57.7348 41.8937 58.2324L51.5223 61.1153C53.1841 61.6129 54.9346 60.6691 55.4322 59.0073L58.5664 48.5396C58.7443 47.9456 58.7423 47.3122 58.5608 46.7192L55.5324 36.8269L57.5959 30.5644L115.638 47.9432ZM54.9011 47.6407L52.5806 40.0606L46.4761 45.1181L43.5766 54.8018L52.0017 57.3244L54.9011 47.6407ZM99.5984 60.4237C99.9981 59.0968 101.397 58.3438 102.725 58.7416C104.054 59.1397 104.809 60.5401 104.411 61.8695L102.004 61.1487C104.411 61.8695 104.411 61.8703 104.411 61.8711L104.41 61.8728L104.409 61.877L104.406 61.8882L104.395 61.9214C104.387 61.9483 104.376 61.9845 104.361 62.0296C104.332 62.1199 104.291 62.2458 104.236 62.4032C104.128 62.7177 103.967 63.1596 103.751 63.6955C103.32 64.7638 102.661 66.2237 101.743 67.8005C99.9415 70.8947 96.9693 74.7391 92.4864 76.6946C89.1162 78.1648 85.3629 78.8039 82.5454 79.0889C81.1185 79.2333 79.8911 79.2906 79.0158 79.3118C78.5774 79.3225 78.2254 79.3241 77.9787 79.3229C77.8553 79.3224 77.758 79.3211 77.6893 79.3199L77.6079 79.3182L77.5837 79.3177L77.5759 79.3174L77.573 79.3174L77.5719 79.3173C77.5714 79.3173 77.5709 79.3173 77.6441 76.8056L77.5709 79.3173C76.1837 79.2769 75.092 78.1196 75.1325 76.7324C75.1729 75.3455 76.3298 74.2539 77.7166 74.2939L77.7174 74.294L77.7254 74.2942L77.7767 74.2952C77.825 74.296 77.9009 74.297 78.0021 74.2975C78.2046 74.2985 78.508 74.2972 78.8939 74.2878C79.6671 74.2691 80.7639 74.218 82.0396 74.089C84.6272 73.8272 87.7928 73.2593 90.477 72.0883C93.5361 70.7539 95.8251 67.9769 97.3996 65.2722C98.1696 63.9495 98.7271 62.7156 99.0905 61.8149C99.2716 61.3663 99.4026 61.0049 99.4864 60.7623C99.5283 60.6412 99.5582 60.55 99.5766 60.4929C99.5857 60.4643 99.592 60.4442 99.5954 60.4332L99.5971 60.4278L102.004 61.1487C99.5971 60.4278 99.5973 60.4271 99.5975 60.4265L99.5978 60.4254L99.5983 60.4239L99.5984 60.4237Z" fill="white" fill-opacity="0.2"/>
<path fill-rule="evenodd" clip-rule="evenodd" d="M832.975 23.2963C831.756 20.1793 833.519 16.7993 836.634 15.8664L918.879 -8.75902C921.994 -9.69193 925.325 -7.837 926.019 -4.56257C926.083 -4.25792 926.151 -3.93595 926.22 -3.59794L930.577 -4.90244C935.136 -6.26748 939.938 -3.67829 941.303 0.880658L947.007 19.93C948.372 24.4889 945.783 29.2913 941.224 30.6563L925.889 35.248C920.254 47.6769 907.15 55.137 894.349 58.9699C879.706 63.3544 862.123 63.9914 850.217 52.8095C849.478 52.1155 848.761 51.3938 848.077 50.6455C844.567 46.807 841.39 41.4569 838.822 36.4109C836.236 31.3305 834.19 26.4 832.975 23.2963ZM927.571 30.5928C927.664 30.2549 927.751 29.9139 927.834 29.5697C927.988 28.9244 928.128 28.2743 928.252 27.6214L932.973 26.2078C937.532 24.8427 940.121 20.0404 938.756 15.4814L936.855 9.13167C935.62 5.00956 931.576 2.49781 927.442 3.06335C927.289 2.1108 927.131 1.19533 926.976 0.327293L931.718 -1.09258C934.172 -1.82759 936.758 -0.433417 937.493 2.0214L943.197 21.0707C943.932 23.5256 942.538 26.1114 940.083 26.8464L927.571 30.5928ZM928.022 6.99883C930.232 6.71894 932.385 8.06804 933.045 10.2724L934.946 16.6222C935.681 19.077 934.287 21.6629 931.832 22.3979L928.805 23.3041C929.124 18.9253 928.841 14.0801 928.342 9.60707C928.243 8.72549 928.136 7.85412 928.022 6.99883ZM838.017 20.4844C837.51 20.6363 837.306 21.1349 837.464 21.5398C838.646 24.5597 840.629 29.3334 843.118 34.2245C845.625 39.1499 848.567 44.0385 851.634 47.3926C852.228 48.0424 852.859 48.6772 853.517 49.2956C863.501 58.6721 878.841 58.5812 892.966 54.3519C907.091 50.1226 919.958 41.768 923.145 28.4477C923.356 27.5691 923.533 26.6924 923.673 25.8229C924.392 21.3354 924.163 15.634 923.551 10.1415C922.942 4.68735 921.975 -0.390574 921.303 -3.56304C921.213 -3.98829 920.768 -4.29286 920.261 -4.141L903.071 1.00595L905.233 7.56686L913.685 14.569C914.189 14.9864 914.558 15.5436 914.745 16.1704L918.053 27.2155C918.578 28.969 917.582 30.816 915.828 31.341L905.669 34.383C903.915 34.908 902.068 33.9122 901.543 32.1588L898.236 21.1137C898.048 20.4869 898.05 19.8185 898.242 19.1929L901.437 8.755L899.26 2.14712L838.017 20.4844ZM902.103 20.1652L904.552 12.167L910.993 17.5034L914.053 27.7213L905.163 30.383L902.103 20.1652ZM854.941 33.6532C854.519 32.2532 853.043 31.4587 851.642 31.8783C850.239 32.2984 849.443 33.776 849.863 35.1788L852.403 34.4182C849.863 35.1788 849.863 35.1796 849.863 35.1804L849.864 35.1823L849.865 35.1867L849.869 35.1985L849.88 35.2335C849.888 35.2619 849.9 35.3001 849.916 35.3477C849.946 35.443 849.99 35.5758 850.047 35.7419C850.162 36.0738 850.332 36.5401 850.56 37.1055C851.015 38.2327 851.71 39.7731 852.679 41.4369C854.579 44.7018 857.715 48.7582 862.445 50.8216C866.002 52.3728 869.962 53.0472 872.935 53.3479C874.44 53.5002 875.735 53.5607 876.659 53.5831C877.122 53.5943 877.493 53.596 877.753 53.5948C877.884 53.5942 877.986 53.5929 878.059 53.5916L878.145 53.5899L878.17 53.5893L878.178 53.589L878.181 53.589L878.183 53.5889C878.183 53.5889 878.184 53.5889 878.111 51.0993L878.184 53.5889C879.647 53.5462 880.799 52.3251 880.757 50.8614C880.714 49.398 879.493 48.2463 878.03 48.2885L878.029 48.2885L878.021 48.2887L877.966 48.2898C877.916 48.2907 877.835 48.2917 877.729 48.2922C877.515 48.2932 877.195 48.2919 876.788 48.282C875.972 48.2622 874.815 48.2084 873.468 48.0722C870.738 47.796 867.398 47.1967 864.566 45.9612C861.338 44.5532 858.923 41.623 857.261 38.7691C856.449 37.3735 855.861 36.0715 855.477 35.1212C855.286 34.6478 855.148 34.2665 855.059 34.0105L855.056 34.0015C855.014 33.8782 854.983 33.7851 854.964 33.7262C854.955 33.696 854.948 33.6749 854.944 33.6633L854.943 33.6576L854.646 33.7464L852.403 34.4182C853.701 34.0295 854.335 33.8393 854.645 33.746C854.942 33.6569 854.942 33.6565 854.942 33.6562L854.942 33.655L854.941 33.6535L854.941 33.6532Z" fill="white" fill-opacity="0.2"/>
<path d="M791.971 34.5018C791.971 34.5018 800.341 42.835 796.339 58.0229C794.589 64.663 790.247 68.8328 785.913 71.4232C779.208 75.4308 770.977 73.8826 763.775 70.8591L759.53 69.0773C752.328 66.0538 745.458 61.2622 743.623 53.6696C742.437 48.762 742.372 42.7421 745.886 36.8429C753.925 23.3493 765.736 23.4882 765.736 23.4882M794.849 33.3005L764.578 20.5925M785.837 41.1299C785.837 41.1299 788.236 46.1714 788.337 49.6299C788.469 54.136 784.837 60.6299 784.837 60.6299M757.961 25.0442C757.961 25.0442 756.803 22.1483 753.627 18.4052C751.173 15.513 749.41 14.3498 748.735 13.9704C748.549 13.8658 748.326 13.8867 748.149 14.0057L742.79 17.6116C742.372 17.8928 742.415 18.5665 742.827 18.8559C744.043 19.7098 745.949 21.5666 746.15 24.9055C746.449 29.85 738.495 31.3558 736.954 35.5031C734.653 41.6973 736.599 48.2227 741.884 52.0311M797.838 40.129C797.838 40.129 805.338 37.129 809.838 40.129C814.338 43.1289 815.499 46.413 815.338 51.129C815.129 57.2568 811.822 62.2949 805.838 63.629C802.36 64.4043 796.838 62.129 796.838 62.129M770.338 22.1289C770.338 22.1289 770.057 23.1298 770.838 20.6293C773.338 12.6292 796.337 22.63 791.337 30.1302M777.729 17.129C779.108 9.41855 793.838 15.6289 790.338 22.129" stroke="white" stroke-opacity="0.2" stroke-width="4" stroke-linecap="round"/>
<path fill-rule="evenodd" clip-rule="evenodd" d="M699.416 52.1619C700.572 49.2078 698.901 46.0044 695.948 45.1203L618.003 21.7821C615.05 20.8979 611.894 22.6559 611.236 25.7592C611.175 26.0479 611.111 26.3531 611.045 26.6734L606.916 25.4371C602.596 24.1434 598.044 26.5972 596.751 30.9179L591.345 48.9715C590.051 53.2922 592.505 57.8435 596.826 59.1371L611.36 63.4888C616.699 75.2681 629.118 82.3382 641.25 85.9708C655.128 90.1261 671.792 90.7298 683.076 80.1324C683.776 79.4746 684.456 78.7907 685.104 78.0814C688.431 74.4436 691.441 69.3732 693.875 64.5909C696.326 59.7761 698.265 55.1033 699.416 52.1619ZM609.765 59.077C609.677 58.7568 609.594 58.4335 609.516 58.1073C609.37 57.4957 609.237 56.8796 609.12 56.2608L604.646 54.9211C600.325 53.6275 597.871 49.0761 599.165 44.7555L600.967 38.7376C602.136 34.831 605.969 32.4505 609.887 32.9865C610.033 32.0837 610.182 31.2161 610.329 30.3935L605.835 29.0478C603.509 28.3512 601.058 29.6725 600.361 31.999L594.956 50.0526C594.259 52.3791 595.581 54.8298 597.907 55.5264L609.765 59.077ZM609.337 36.7163C607.243 36.451 605.203 37.7296 604.577 39.8187L602.776 45.8366C602.079 48.1631 603.4 50.6138 605.727 51.3104L608.595 52.1693C608.294 48.0193 608.562 43.4274 609.035 39.1882C609.128 38.3527 609.23 37.5268 609.337 36.7163ZM694.638 49.4969C695.119 49.6409 695.312 50.1135 695.162 50.4971C694.042 53.3592 692.163 57.8834 689.804 62.5188C687.428 67.1868 684.639 71.8198 681.733 74.9986C681.169 75.6144 680.572 76.2161 679.948 76.8022C670.486 85.6886 655.948 85.6023 642.561 81.5942C629.174 77.586 616.981 69.668 613.959 57.0439C613.76 56.2113 613.592 55.3804 613.46 54.5564C612.778 50.3034 612.995 44.9001 613.575 39.6947C614.152 34.5256 615.068 29.7131 615.705 26.7065C615.791 26.3035 616.212 26.0148 616.693 26.1587L632.984 31.0366L630.935 37.2546L622.925 43.8907C622.448 44.2863 622.098 44.8144 621.92 45.4085L618.786 55.8762C618.288 57.538 619.232 59.2885 620.894 59.7861L630.522 62.6691C632.184 63.1666 633.935 62.2228 634.432 60.5611L637.566 50.0933C637.744 49.4993 637.742 48.8659 637.561 48.2729L634.532 38.3806L636.596 32.1181L694.638 49.4969ZM633.901 49.1944L631.581 41.6143L625.476 46.6718L622.577 56.3556L631.002 58.8782L633.901 49.1944ZM678.598 61.9774C678.998 60.6506 680.397 59.8976 681.725 60.2953C683.054 60.6934 683.809 62.0938 683.411 63.4232L681.004 62.7024C683.411 63.4232 683.411 63.424 683.411 63.4248L683.41 63.4265L683.409 63.4308L683.406 63.4419L683.395 63.4751C683.387 63.502 683.376 63.5382 683.361 63.5833C683.332 63.6736 683.291 63.7995 683.236 63.9569C683.128 64.2715 682.967 64.7134 682.751 65.2492C682.32 66.3175 681.661 67.7774 680.743 69.3542C678.942 72.4484 675.969 76.2928 671.486 78.2483C668.116 79.7185 664.363 80.3576 661.545 80.6426C660.119 80.787 658.891 80.8443 658.016 80.8655C657.577 80.8762 657.225 80.8778 656.979 80.8766C656.855 80.8761 656.758 80.8748 656.689 80.8736L656.608 80.872L656.584 80.8714L656.576 80.8712L656.573 80.8711L656.572 80.871C656.571 80.871 656.571 80.871 656.644 78.3593L656.571 80.871C655.184 80.8306 654.092 79.6733 654.132 78.2861C654.173 76.8992 655.33 75.8077 656.717 75.8477L656.717 75.8477L656.725 75.8479L656.777 75.8489C656.825 75.8497 656.901 75.8508 657.002 75.8512C657.205 75.8522 657.508 75.8509 657.894 75.8415C658.667 75.8228 659.764 75.7718 661.04 75.6427C663.627 75.3809 666.793 74.813 669.477 73.642C672.536 72.3076 674.825 69.5306 676.4 66.8259C677.17 65.5032 677.727 64.2693 678.091 63.3686C678.272 62.92 678.403 62.5586 678.486 62.316C678.528 62.1949 678.558 62.1037 678.577 62.0466C678.586 62.018 678.592 61.998 678.595 61.9869L678.597 61.9815L681.004 62.7024C678.597 61.9815 678.597 61.9809 678.598 61.9802L678.598 61.9791L678.598 61.9776L678.598 61.9774Z" fill="white" fill-opacity="0.2"/>
<path d="M443.956 23.3618C443.956 23.3618 434.415 32.9575 439.108 50.314C441.16 57.9022 446.169 62.6452 451.156 65.5804C458.873 70.1214 468.302 68.2928 476.54 64.7826L481.395 62.714C489.634 59.2038 497.479 53.6721 499.531 44.969C500.858 39.3437 500.891 32.4528 496.82 25.7247C487.51 10.3352 473.966 10.5753 473.966 10.5753M440.647 22.0066L475.274 7.25297M451.036 30.9062C451.036 30.9062 448.319 36.6931 448.227 40.6524C448.107 45.811 452.316 53.219 452.316 53.219M482.893 12.3029C482.893 12.3029 484.201 8.98031 487.817 4.67417C490.612 1.34686 492.626 0.00328514 493.397 -0.435606C493.609 -0.556542 493.865 -0.534209 494.069 -0.399162L500.24 3.69128C500.721 4.01027 500.676 4.7817 500.206 5.11578C498.816 6.1015 496.644 8.23997 496.436 12.063C496.128 17.7246 505.259 19.3935 507.054 24.1298C509.736 31.2039 507.549 38.6862 501.514 43.0816M437.267 29.843C437.267 29.843 428.645 26.4607 423.505 29.9254C418.366 33.39 417.057 37.157 417.274 42.5538C417.555 49.5663 421.382 55.3102 428.254 56.796C432.247 57.6596 438.564 55.0173 438.564 55.0173M468.679 9.0511C468.679 9.0511 469.009 10.1948 468.096 7.33807C465.174 -1.80161 438.868 9.80328 444.654 18.3537M460.169 3.37896C458.535 -5.43693 441.686 1.77266 445.744 9.18866" stroke="white" stroke-opacity="0.2" stroke-width="4" stroke-linecap="round"/>
</g>
<defs>
<clipPath id="clip0_553_4608">
<rect width="1440" height="80" fill="white"/>
</clipPath>
</defs>
</svg>
