<svg width="25" height="25" viewBox="0 0 25 25" fill="none" xmlns="http://www.w3.org/2000/svg">
<path d="M15.6508 11.29C16.6208 10.62 17.3008 9.52 17.3008 8.5C17.3008 6.24 15.5508 4.5 13.3008 4.5H7.05078V18.5H14.0908C16.1808 18.5 17.8008 16.8 17.8008 14.71C17.8008 13.19 16.9408 11.89 15.6508 11.29ZM10.0508 7H13.0508C13.8808 7 14.5508 7.67 14.5508 8.5C14.5508 9.33 13.8808 10 13.0508 10H10.0508V7ZM13.5508 16H10.0508V13H13.5508C14.3808 13 15.0508 13.67 15.0508 14.5C15.0508 15.33 14.3808 16 13.5508 16Z" fill="black"/>
</svg>
