<svg width="12" height="12" viewBox="0 0 12 12" fill="none" xmlns="http://www.w3.org/2000/svg">
<path d="M10.2432 11.6574C10.6337 12.0479 11.2669 12.0479 11.6574 11.6574C12.0479 11.2669 12.0479 10.6337 11.6574 10.2432L7.41475 6.00054L11.6574 1.75791C12.0479 1.36738 12.0479 0.734219 11.6574 0.343695C11.2669 -0.0468292 10.6337 -0.0468292 10.2432 0.343695L6.00054 4.58633L1.75789 0.343675C1.36736 -0.04685 0.7342 -0.0468497 0.343676 0.343675C-0.0468488 0.734199 -0.0468492 1.36736 0.343675 1.75789L4.58633 6.00054L0.343675 10.2432C-0.04685 10.6337 -0.0468497 11.2669 0.343675 11.6574C0.734199 12.0479 1.36736 12.0479 1.75789 11.6574L6.00054 7.41475L10.2432 11.6574Z" fill="#271700"/>
</svg>
