<svg width="24" height="24" viewBox="0 0 24 24" fill="none" xmlns="http://www.w3.org/2000/svg">
<path d="M16.2432 17.6574C16.6337 18.0479 17.2669 18.0479 17.6574 17.6574C18.0479 17.2669 18.0479 16.6337 17.6574 16.2432L13.4148 12.0005L17.6574 7.75791C18.0479 7.36738 18.0479 6.73422 17.6574 6.3437C17.2669 5.95317 16.6337 5.95317 16.2432 6.3437L12.0005 10.5863L7.75789 6.34367C7.36736 5.95315 6.7342 5.95315 6.34368 6.34367C5.95315 6.7342 5.95315 7.36736 6.34368 7.75789L10.5863 12.0005L6.34367 16.2432C5.95315 16.6337 5.95315 17.2669 6.34367 17.6574C6.7342 18.0479 7.36736 18.0479 7.75789 17.6574L12.0005 13.4148L16.2432 17.6574Z" fill="#271700"/>
</svg>
