<svg width="22" height="21" viewBox="0 0 22 21" fill="none" xmlns="http://www.w3.org/2000/svg">
<mask id="path-1-outside-1_1141_15024" maskUnits="userSpaceOnUse" x="0.0439453" y="-0.5" width="22" height="22" fill="black">
<rect fill="white" x="0.0439453" y="-0.5" width="22" height="22"/>
<path fill-rule="evenodd" clip-rule="evenodd" d="M12.4859 19.5864L10.0149 13.8234C9.90611 13.5696 10.0236 13.2757 10.2774 13.1668C10.5312 13.058 10.8252 13.1755 10.934 13.4293L13.4051 19.1927C13.5892 19.6227 14.2074 19.5971 14.3551 19.1532L20.0161 2.17327C20.1488 1.77515 19.7697 1.39602 19.3716 1.52873L2.39274 7.18767C1.94768 7.33619 1.92203 7.95493 2.35339 8.13979L9.59295 11.2418L17.9154 2.92227C18.1107 2.72704 19.3487 1.80601 19.5439 2.00131C19.7391 2.19661 18.8177 3.43427 18.6224 3.6295L10.0604 12.1885C9.90629 12.3425 9.67673 12.375 9.49083 12.286L1.9595 9.05895C0.683076 8.51191 0.75907 6.67863 2.07637 6.23904L19.0554 0.580041C20.2352 0.186748 21.3581 1.30962 20.9648 2.48952L15.3039 19.4693C14.8655 20.7858 13.0317 20.8619 12.4859 19.5864Z"/>
</mask>
<path fill-rule="evenodd" clip-rule="evenodd" d="M12.4859 19.5864L10.0149 13.8234C9.90611 13.5696 10.0236 13.2757 10.2774 13.1668C10.5312 13.058 10.8252 13.1755 10.934 13.4293L13.4051 19.1927C13.5892 19.6227 14.2074 19.5971 14.3551 19.1532L20.0161 2.17327C20.1488 1.77515 19.7697 1.39602 19.3716 1.52873L2.39274 7.18767C1.94768 7.33619 1.92203 7.95493 2.35339 8.13979L9.59295 11.2418L17.9154 2.92227C18.1107 2.72704 19.3487 1.80601 19.5439 2.00131C19.7391 2.19661 18.8177 3.43427 18.6224 3.6295L10.0604 12.1885C9.90629 12.3425 9.67673 12.375 9.49083 12.286L1.9595 9.05895C0.683076 8.51191 0.75907 6.67863 2.07637 6.23904L19.0554 0.580041C20.2352 0.186748 21.3581 1.30962 20.9648 2.48952L15.3039 19.4693C14.8655 20.7858 13.0317 20.8619 12.4859 19.5864Z" fill="#271700"/>
<path d="M10.0149 13.8234L9.83111 13.9022L10.0149 13.8234ZM12.4859 19.5864L12.6698 19.5077L12.6697 19.5076L12.4859 19.5864ZM10.934 13.4293L10.7502 13.5082L10.934 13.4293ZM13.4051 19.1927L13.589 19.114L13.589 19.1139L13.4051 19.1927ZM14.3551 19.1532L14.1654 19.09L14.1654 19.0901L14.3551 19.1532ZM20.0161 2.17327L20.2059 2.23652L20.2059 2.23651L20.0161 2.17327ZM19.3716 1.52873L19.4348 1.71847L19.4348 1.71847L19.3716 1.52873ZM2.39274 7.18767L2.3295 6.99793L2.32943 6.99795L2.39274 7.18767ZM2.35339 8.13979L2.2746 8.32362L2.27462 8.32363L2.35339 8.13979ZM9.59295 11.2418L9.51418 11.4256L9.6386 11.4789L9.73434 11.3832L9.59295 11.2418ZM17.9154 2.92227L17.774 2.78082V2.78082L17.9154 2.92227ZM19.5439 2.00131L19.4025 2.14271L19.4025 2.14271L19.5439 2.00131ZM18.6224 3.6295L18.7638 3.77094V3.77094L18.6224 3.6295ZM10.0604 12.1885L9.91896 12.0471L10.0604 12.1885ZM9.49083 12.286L9.5773 12.1054L9.5696 12.1021L9.49083 12.286ZM1.9595 9.05895L1.88072 9.24278L1.88074 9.24279L1.9595 9.05895ZM2.07637 6.23904L2.01313 6.0493L2.01306 6.04932L2.07637 6.23904ZM19.0554 0.580041L19.1186 0.769779L19.1186 0.769777L19.0554 0.580041ZM20.9648 2.48952L21.1545 2.55278L21.1545 2.55277L20.9648 2.48952ZM15.3039 19.4693L15.1141 19.4061L15.1141 19.4062L15.3039 19.4693ZM9.83111 13.9022L12.3021 19.6652L12.6697 19.5076L10.1987 13.7446L9.83111 13.9022ZM10.1986 12.983C9.8433 13.1354 9.67876 13.5469 9.83111 13.9022L10.1987 13.7446C10.1334 13.5923 10.204 13.4159 10.3562 13.3507L10.1986 12.983ZM11.1178 13.3505C10.9655 12.9952 10.5539 12.8307 10.1986 12.983L10.3562 13.3507C10.5085 13.2854 10.6849 13.3559 10.7502 13.5082L11.1178 13.3505ZM13.589 19.1139L11.1178 13.3505L10.7502 13.5082L13.2213 19.2715L13.589 19.1139ZM14.1654 19.0901C14.0757 19.3593 13.7006 19.3749 13.589 19.114L13.2213 19.2714C13.4777 19.8706 14.339 19.8348 14.5449 19.2164L14.1654 19.0901ZM19.8264 2.11001L14.1654 19.09L14.5449 19.2165L20.2059 2.23652L19.8264 2.11001ZM19.4348 1.71847C19.6766 1.63787 19.907 1.86826 19.8264 2.11002L20.2059 2.23651C20.3907 1.68203 19.8628 1.15417 19.3083 1.33899L19.4348 1.71847ZM2.45598 7.37741L19.4348 1.71847L19.3083 1.33899L2.3295 6.99793L2.45598 7.37741ZM2.43217 7.95597C2.16978 7.84351 2.18543 7.46769 2.45605 7.37738L2.32943 6.99795C1.70992 7.20469 1.67427 8.06634 2.2746 8.32362L2.43217 7.95597ZM9.67171 11.0579L2.43216 7.95596L2.27462 8.32363L9.51418 11.4256L9.67171 11.0579ZM17.774 2.78082L9.45155 11.1003L9.73434 11.3832L18.0568 3.06371L17.774 2.78082ZM19.6853 1.85992C19.5931 1.76759 19.4704 1.76934 19.4001 1.77847C19.3211 1.78874 19.2367 1.81732 19.1567 1.85114C18.9944 1.91973 18.8039 2.0299 18.6215 2.14709C18.2592 2.37989 17.8868 2.66806 17.774 2.78082L18.0568 3.06371C18.1393 2.98125 18.4834 2.71129 18.8378 2.4836C19.0137 2.37054 19.1816 2.27487 19.3124 2.21959C19.3789 2.19148 19.4248 2.17862 19.4517 2.17514C19.4872 2.17052 19.4459 2.18621 19.4025 2.14271L19.6853 1.85992ZM18.7638 3.77094C18.8766 3.65818 19.1649 3.28582 19.3978 2.92361C19.515 2.74128 19.6253 2.55087 19.6939 2.38857C19.7278 2.30854 19.7564 2.2242 19.7667 2.14518C19.7758 2.07486 19.7776 1.95224 19.6853 1.85991L19.4025 2.14271C19.359 2.09921 19.3747 2.05798 19.37 2.0935C19.3665 2.1203 19.3537 2.16622 19.3255 2.23274C19.2702 2.36352 19.1745 2.53135 19.0614 2.70725C18.8335 3.0615 18.5635 3.40558 18.481 3.48805L18.7638 3.77094ZM10.2018 12.3299L18.7638 3.77094L18.481 3.48805L9.91896 12.0471L10.2018 12.3299ZM9.40444 12.4663C9.66445 12.5909 9.98584 12.5458 10.2018 12.3299L9.91896 12.0471C9.82674 12.1392 9.68902 12.1591 9.57722 12.1056L9.40444 12.4663ZM1.88074 9.24279L9.41206 12.4698L9.5696 12.1021L2.03827 8.87512L1.88074 9.24279ZM2.01306 6.04932C0.521361 6.54712 0.435274 8.62331 1.88072 9.24278L2.03829 8.87512C0.930878 8.40052 0.99678 6.81015 2.13968 6.42875L2.01306 6.04932ZM18.9921 0.390302L2.01313 6.0493L2.13961 6.42877L19.1186 0.769779L18.9921 0.390302ZM21.1545 2.55277C21.6 1.21651 20.3283 -0.0551075 18.9921 0.390304L19.1186 0.769777C20.1421 0.428602 21.1162 1.40272 20.7751 2.42628L21.1545 2.55277ZM15.4936 19.5326L21.1545 2.55278L20.7751 2.42627L15.1141 19.4061L15.4936 19.5326ZM12.3021 19.6651C12.9202 21.1098 14.9972 21.0236 15.4936 19.5325L15.1141 19.4062C14.7339 20.5481 13.1432 20.614 12.6698 19.5077L12.3021 19.6651Z" fill="#271700" mask="url(#path-1-outside-1_1141_15024)"/>
</svg>
