<svg width="12" height="12" viewBox="0 0 12 12" fill="none" xmlns="http://www.w3.org/2000/svg">
<path d="M2.49935 3.66699C2.49935 3.34483 2.76052 3.08366 3.08268 3.08366H8.91602C9.23818 3.08366 9.49935 3.34483 9.49935 3.66699C9.49935 3.98916 9.23818 4.25033 8.91602 4.25033H3.08268C2.76052 4.25033 2.49935 3.98916 2.49935 3.66699Z" fill="#271700"/>
<path d="M3.08268 5.41699C2.76052 5.41699 2.49935 5.67816 2.49935 6.00033C2.49935 6.32249 2.76052 6.58366 3.08268 6.58366H5.41602C5.73818 6.58366 5.99935 6.32249 5.99935 6.00033C5.99935 5.67816 5.73818 5.41699 5.41602 5.41699H3.08268Z" fill="#271700"/>
<path fill-rule="evenodd" clip-rule="evenodd" d="M9.49935 9.50033H10.666C11.3103 9.50033 11.8327 8.97799 11.8327 8.33366V1.33366C11.8327 0.689327 11.3103 0.166992 10.666 0.166992H1.33268C0.68835 0.166992 0.166016 0.689327 0.166016 1.33366V8.33366C0.166016 8.97799 0.68835 9.50033 1.33268 9.50033H5.99935V10.667C5.99935 11.7882 7.42664 12.2639 8.09935 11.367L9.49935 9.50033ZM7.16602 8.33366V10.667L8.91602 8.33366H10.666V1.33366H1.33268V8.33366H7.16602Z" fill="#271700"/>
</svg>
