<svg width="14" height="14" viewBox="0 0 14 14" fill="none" xmlns="http://www.w3.org/2000/svg">
<path d="M6.55742 11.2405L6.55656 11.2397C5.0424 9.86666 3.83436 8.76967 2.99763 7.74669C2.1678 6.73213 1.76602 5.86374 1.76602 4.95833C1.76602 3.49304 2.90905 2.35 4.37435 2.35C5.20768 2.35 6.01686 2.74086 6.54254 3.35817L6.99935 3.89461L7.45616 3.35817C7.98184 2.74086 8.79102 2.35 9.62435 2.35C11.0896 2.35 12.2327 3.49304 12.2327 4.95833C12.2327 5.86375 11.8309 6.73217 11.0009 7.74757C10.1642 8.77129 8.95627 9.86958 7.44226 11.2454C7.44206 11.2456 7.44186 11.2458 7.44166 11.246L7.00088 11.6442L6.55742 11.2405Z" stroke="#271700" stroke-width="1.2"/>
</svg>
