<svg width="12" height="12" viewBox="0 0 12 12" fill="none" xmlns="http://www.w3.org/2000/svg">
<path d="M5.55742 10.2405L5.55656 10.2397C4.0424 8.86666 2.83436 7.76967 1.99763 6.74669C1.1678 5.73213 0.766016 4.86374 0.766016 3.95833C0.766016 2.49304 1.90905 1.35 3.37435 1.35C4.20768 1.35 5.01686 1.74086 5.54254 2.35817L5.99935 2.89461L6.45616 2.35817C6.98184 1.74086 7.79102 1.35 8.62435 1.35C10.0896 1.35 11.2327 2.49304 11.2327 3.95833C11.2327 4.86375 10.8309 5.73217 10.0009 6.74757C9.16418 7.77129 7.95627 8.86958 6.44226 10.2454C6.44206 10.2456 6.44186 10.2458 6.44166 10.246L6.00088 10.6442L5.55742 10.2405Z" stroke="#271700" stroke-width="1.2"/>
</svg>
