<svg width="31" height="31" viewBox="0 0 31 31" fill="none" xmlns="http://www.w3.org/2000/svg">
<path fill-rule="evenodd" clip-rule="evenodd" d="M7.74996 18.0807C9.17652 18.0807 10.3333 16.9245 10.3333 15.4974C10.3333 14.0703 9.17652 12.9141 7.74996 12.9141C6.3234 12.9141 5.16663 14.0703 5.16663 15.4974C5.16663 16.9245 6.3234 18.0807 7.74996 18.0807ZM15.5 18.0827C16.9265 18.0827 18.0833 16.9264 18.0833 15.4993C18.0833 14.0723 16.9265 12.916 15.5 12.916C14.0734 12.916 12.9166 14.0723 12.9166 15.4993C12.9166 16.9264 14.0734 18.0827 15.5 18.0827ZM15.4999 14.207C16.2132 14.207 16.7916 14.7851 16.7916 15.4987C16.7916 16.2123 16.2132 16.7904 15.4999 16.7904C14.7866 16.7904 14.2083 16.2123 14.2083 15.4987C14.2083 14.7851 14.7866 14.207 15.4999 14.207ZM9.04162 15.4987C9.04162 14.7851 8.46328 14.207 7.74995 14.207C7.03662 14.207 6.45828 14.7851 6.45828 15.4987C6.45828 16.2123 7.03662 16.7904 7.74995 16.7904C8.46328 16.7904 9.04162 16.2123 9.04162 15.4987ZM24.5416 15.4987C24.5416 14.7851 23.9633 14.207 23.25 14.207C22.5367 14.207 21.9583 14.7851 21.9583 15.4987C21.9583 16.2123 22.5367 16.7904 23.25 16.7904C23.9633 16.7904 24.5416 16.2123 24.5416 15.4987ZM23.25 18.0827C24.6766 18.0827 25.8333 16.9264 25.8333 15.4993C25.8333 14.0723 24.6766 12.916 23.25 12.916C21.8234 12.916 20.6667 14.0723 20.6667 15.4993C20.6667 16.9264 21.8234 18.0827 23.25 18.0827Z" fill="#676767"/>
</svg>
