<svg width="24" height="24" viewBox="0 0 24 24" fill="none" xmlns="http://www.w3.org/2000/svg">
<path d="M6 8C6 7.44772 6.44772 7 7 7H17C17.5523 7 18 7.44772 18 8C18 8.55229 17.5523 9 17 9H7C6.44772 9 6 8.55229 6 8Z" fill="#676767"/>
<path d="M7 11C6.44772 11 6 11.4477 6 12C6 12.5523 6.44772 13 7 13H11C11.5523 13 12 12.5523 12 12C12 11.4477 11.5523 11 11 11H7Z" fill="#676767"/>
<path fill-rule="evenodd" clip-rule="evenodd" d="M18 18H20C21.1046 18 22 17.1046 22 16V4C22 2.89543 21.1046 2 20 2H4C2.89543 2 2 2.89543 2 4V16C2 17.1046 2.89543 18 4 18H12V20C12 21.922 14.4468 22.7376 15.6 21.2L18 18ZM14 16V20L17 16H20V4H4V16H14Z" fill="#676767"/>
</svg>
