<svg width="44" height="44" viewBox="0 0 44 44" fill="none" xmlns="http://www.w3.org/2000/svg">
<path d="M18.3327 30.2498L29.3327 21.9998L18.3327 13.7498V30.2498ZM21.9993 3.6665C11.8793 3.6665 3.66602 11.8798 3.66602 21.9998C3.66602 32.1198 11.8793 40.3332 21.9993 40.3332C32.1193 40.3332 40.3327 32.1198 40.3327 21.9998C40.3327 11.8798 32.1193 3.6665 21.9993 3.6665ZM21.9993 36.6665C13.9143 36.6665 7.33268 30.0848 7.33268 21.9998C7.33268 13.9148 13.9143 7.33317 21.9993 7.33317C30.0843 7.33317 36.666 13.9148 36.666 21.9998C36.666 30.0848 30.0843 36.6665 21.9993 36.6665Z" fill="#271700"/>
</svg>
