<svg width="19" height="19" viewBox="0 0 19 19" fill="none" xmlns="http://www.w3.org/2000/svg">
<path fill-rule="evenodd" clip-rule="evenodd" d="M11.4654 12.563C10.5804 13.1139 9.53559 13.432 8.41646 13.432C5.22548 13.432 2.63867 10.8452 2.63867 7.65425C2.63867 4.46327 5.22548 1.87646 8.41646 1.87646C11.6074 1.87646 14.1942 4.46327 14.1942 7.65425C14.1942 9.16857 13.6117 10.5468 12.6584 11.5771L17.0501 15.9688C17.3509 16.2696 17.3509 16.7574 17.0501 17.0583C16.7492 17.3591 16.2615 17.3591 15.9606 17.0583L11.4654 12.563ZM12.6535 7.65425C12.6535 9.99431 10.7565 11.8913 8.41646 11.8913C6.07641 11.8913 4.17942 9.99431 4.17942 7.65425C4.17942 5.3142 6.07641 3.41721 8.41646 3.41721C10.7565 3.41721 12.6535 5.3142 12.6535 7.65425Z" fill="#271700"/>
</svg>
