<svg width="12" height="12" viewBox="0 0 12 12" fill="none" xmlns="http://www.w3.org/2000/svg">
<path d="M6.58268 3.08366C6.58268 2.76149 6.32152 2.50033 5.99935 2.50033C5.67718 2.50033 5.41602 2.76149 5.41602 3.08366V6.00033C5.41602 6.32249 5.67718 6.58366 5.99935 6.58366H8.33268C8.65485 6.58366 8.91602 6.32249 8.91602 6.00033C8.91602 5.67816 8.65485 5.41699 8.33268 5.41699H6.58268V3.08366Z" fill="#271700"/>
<path fill-rule="evenodd" clip-rule="evenodd" d="M11.8327 6.00033C11.8327 9.22199 9.22101 11.8337 5.99935 11.8337C2.77769 11.8337 0.166016 9.22199 0.166016 6.00033C0.166016 2.77866 2.77769 0.166992 5.99935 0.166992C9.22101 0.166992 11.8327 2.77866 11.8327 6.00033ZM10.666 6.00033C10.666 8.57765 8.57668 10.667 5.99935 10.667C3.42202 10.667 1.33268 8.57765 1.33268 6.00033C1.33268 3.423 3.42202 1.33366 5.99935 1.33366C8.57668 1.33366 10.666 3.423 10.666 6.00033Z" fill="#271700"/>
</svg>
