<svg width="16" height="16" viewBox="0 0 16 16" fill="none" xmlns="http://www.w3.org/2000/svg">
<path d="M9.79077 1.76366C9.79077 1.15074 9.07072 0.821239 8.60689 1.22191L4.83794 4.47773C4.7079 4.59006 4.5418 4.65187 4.36996 4.65187L1.91596 4.65189C1.52059 4.65189 1.20007 4.97241 1.20007 5.36778V9.87287C1.20007 10.2682 1.52059 10.5888 1.91597 10.5888H4.36998C4.54182 10.5888 4.70793 10.6506 4.83797 10.7629L8.60689 14.0187C9.07072 14.4194 9.79077 14.0899 9.79077 13.4769V7.6203V1.76366Z" fill="#271700" stroke="#271700" stroke-width="1.07384"/>
<path d="M11.9385 9.76739C12.3879 9.16924 12.6543 8.42572 12.6543 7.62002C12.6543 6.81433 12.3879 6.07081 11.9385 5.47266" stroke="#271700" stroke-width="1.07384" stroke-linecap="round"/>
<path d="M13.3703 11.9149C14.2693 10.7184 14.8021 9.2312 14.8021 7.61957C14.8021 6.00795 14.2693 4.52071 13.3703 3.32422" stroke="#271700" stroke-width="1.07384" stroke-linecap="round"/>
</svg>
