<svg width="14" height="14" viewBox="0 0 14 14" fill="none" xmlns="http://www.w3.org/2000/svg">
<path d="M7.58366 4.08268C7.58366 3.76052 7.32249 3.49935 7.00033 3.49935C6.67816 3.49935 6.41699 3.76052 6.41699 4.08268V6.99935C6.41699 7.32152 6.67816 7.58268 7.00033 7.58268H9.33366C9.65583 7.58268 9.91699 7.32152 9.91699 6.99935C9.91699 6.67718 9.65583 6.41602 9.33366 6.41602H7.58366V4.08268Z" fill="#676767"/>
<path fill-rule="evenodd" clip-rule="evenodd" d="M12.8337 6.99935C12.8337 10.221 10.222 12.8327 7.00033 12.8327C3.77866 12.8327 1.16699 10.221 1.16699 6.99935C1.16699 3.77769 3.77866 1.16602 7.00033 1.16602C10.222 1.16602 12.8337 3.77769 12.8337 6.99935ZM11.667 6.99935C11.667 9.57668 9.57765 11.666 7.00033 11.666C4.423 11.666 2.33366 9.57668 2.33366 6.99935C2.33366 4.42202 4.423 2.33268 7.00033 2.33268C9.57765 2.33268 11.667 4.42202 11.667 6.99935Z" fill="#676767"/>
</svg>
