<svg width="158" height="11" viewBox="0 0 158 11" fill="none" xmlns="http://www.w3.org/2000/svg">
<rect width="158" height="10" transform="translate(0 0.09375)" fill="white"/>
<path d="M70.6299 6.719V3.41992H73.0484C73.9245 3.41992 74.451 4.04248 74.451 5.07191C74.451 6.10134 73.9245 6.719 73.0484 6.719H70.6299ZM72.9366 3.92973H71.1658V6.20918H72.9366C73.547 6.20918 73.9291 5.7729 73.9291 5.07191C73.9291 4.37092 73.547 3.92973 72.9366 3.92973Z" fill="black"/>
<path d="M74.9622 6.719V3.41992H78.597V3.92973H75.4981V4.43465H78.5504V4.94446H75.4981V6.20918H78.597V6.719H74.9622Z" fill="black"/>
<path d="M79.1079 6.76802V3.41992H82.2347C82.6681 3.41992 82.9291 3.70424 82.9291 4.17974C82.9291 4.65524 82.6681 4.94446 82.2347 4.94446H79.6438V6.76802H79.1079ZM82.0949 3.92973H79.6438V4.43465H82.0949C82.3 4.43465 82.4072 4.35621 82.4072 4.17974C82.4072 4.00327 82.2953 3.92973 82.0949 3.92973Z" fill="black"/>
<path d="M83.3304 5.36853V4.99697H83.6259V4.25742H84.0165V4.99697H84.7229V5.36853H84.0165V6.00803C84.0165 6.17952 84.0878 6.29028 84.2984 6.29028H84.7568V6.66183H84.261C83.7889 6.66183 83.6259 6.40817 83.6259 6.02233V5.36853H83.3304Z" fill="black"/>
<path d="M85.8692 5.36853C85.6587 5.36853 85.5194 5.47928 85.5194 5.65077V6.66183H85.1288V4.25742H85.5194V5.12558C85.6009 5.04698 85.713 4.99697 85.8455 4.99697H86.7353C87.2073 4.99697 87.3704 5.25063 87.3704 5.63648V6.66183H86.9798V5.65077C86.9798 5.47928 86.9085 5.36853 86.6979 5.36853H85.8692Z" fill="black"/>
</svg>
