<svg width="14" height="14" viewBox="0 0 14 14" fill="none" xmlns="http://www.w3.org/2000/svg">
<path d="M6.55938 11.2405L6.55851 11.2397C5.04436 9.86666 3.83632 8.76967 2.99959 7.74669C2.16975 6.73213 1.76797 5.86374 1.76797 4.95833C1.76797 3.49304 2.91101 2.35 4.3763 2.35C5.20963 2.35 6.01881 2.74086 6.54449 3.35817L7.0013 3.89461L7.45811 3.35817C7.98379 2.74086 8.79297 2.35 9.6263 2.35C11.0916 2.35 12.2346 3.49304 12.2346 4.95833C12.2346 5.86375 11.8329 6.73217 11.0029 7.74757C10.1661 8.77129 8.95822 9.86958 7.44421 11.2454C7.44401 11.2456 7.44381 11.2458 7.44362 11.246L7.00283 11.6442L6.55938 11.2405Z" stroke="#676767" stroke-width="1.2"/>
</svg>
