<svg width="14" height="14" viewBox="0 0 14 14" fill="none" xmlns="http://www.w3.org/2000/svg">
<path d="M3.5013 4.66663C3.5013 4.34446 3.76247 4.08329 4.08464 4.08329H9.91797C10.2401 4.08329 10.5013 4.34446 10.5013 4.66663C10.5013 4.98879 10.2401 5.24996 9.91797 5.24996H4.08464C3.76247 5.24996 3.5013 4.98879 3.5013 4.66663Z" fill="#676767"/>
<path d="M4.08464 6.41663C3.76247 6.41663 3.5013 6.67779 3.5013 6.99996C3.5013 7.32213 3.76247 7.58329 4.08464 7.58329H6.41797C6.74013 7.58329 7.0013 7.32213 7.0013 6.99996C7.0013 6.67779 6.74013 6.41663 6.41797 6.41663H4.08464Z" fill="#676767"/>
<path fill-rule="evenodd" clip-rule="evenodd" d="M10.5013 10.5H11.668C12.3123 10.5 12.8346 9.97763 12.8346 9.33329V2.33329C12.8346 1.68896 12.3123 1.16663 11.668 1.16663H2.33464C1.6903 1.16663 1.16797 1.68896 1.16797 2.33329V9.33329C1.16797 9.97763 1.6903 10.5 2.33464 10.5H7.0013V11.6666C7.0013 12.7878 8.42859 13.2636 9.1013 12.3666L10.5013 10.5ZM8.16797 9.33329V11.6666L9.91797 9.33329H11.668V2.33329H2.33464V9.33329H8.16797Z" fill="#676767"/>
</svg>
