<svg width="14" height="14" viewBox="0 0 14 14" fill="none" xmlns="http://www.w3.org/2000/svg">
<path d="M7.58464 4.08329C7.58464 3.76113 7.32347 3.49996 7.0013 3.49996C6.67914 3.49996 6.41797 3.76113 6.41797 4.08329V6.99996C6.41797 7.32213 6.67914 7.58329 7.0013 7.58329H9.33464C9.6568 7.58329 9.91797 7.32213 9.91797 6.99996C9.91797 6.67779 9.6568 6.41663 9.33464 6.41663H7.58464V4.08329Z" fill="#676767"/>
<path fill-rule="evenodd" clip-rule="evenodd" d="M12.8346 6.99996C12.8346 10.2216 10.223 12.8333 7.0013 12.8333C3.77964 12.8333 1.16797 10.2216 1.16797 6.99996C1.16797 3.7783 3.77964 1.16663 7.0013 1.16663C10.223 1.16663 12.8346 3.7783 12.8346 6.99996ZM11.668 6.99996C11.668 9.57729 9.57863 11.6666 7.0013 11.6666C4.42397 11.6666 2.33464 9.57729 2.33464 6.99996C2.33464 4.42263 4.42397 2.33329 7.0013 2.33329C9.57863 2.33329 11.668 4.42263 11.668 6.99996Z" fill="#676767"/>
</svg>
