<svg width="57" height="57" viewBox="0 0 57 57" fill="none" xmlns="http://www.w3.org/2000/svg">
<path d="M23.1755 23.1001C22.4877 23.7409 21.9361 24.5137 21.5535 25.3724C21.1709 26.231 20.9652 27.158 20.9486 28.0978C20.932 29.0377 21.1049 29.9713 21.457 30.843C21.809 31.7146 22.3331 32.5064 22.9978 33.1711C23.6625 33.8358 24.4543 34.3598 25.3259 34.7119C26.1975 35.0639 27.1311 35.2368 28.071 35.2202C29.0109 35.2037 29.9378 34.9979 30.7965 34.6153C31.6551 34.2328 32.4279 33.6811 33.0688 32.9934M25.159 11.9C26.1421 11.7776 27.1317 11.7152 28.1224 11.7134C44.4557 11.7134 51.4557 28.0467 51.4557 28.0467C50.4125 30.28 49.1042 32.3796 47.559 34.3M15.5457 15.47C10.9053 18.6308 7.1921 22.9723 4.78906 28.0467C4.78906 28.0467 11.7891 44.38 28.1224 44.38C32.5929 44.392 36.9676 43.0853 40.6991 40.6233M4.78906 4.71338L51.4557 51.38" stroke="black" stroke-width="3.66667" stroke-linecap="round" stroke-linejoin="round"/>
</svg>
