<svg width="12" height="13" viewBox="0 0 12 13" fill="none" xmlns="http://www.w3.org/2000/svg">
<path d="M6.02006 1.78809C3.67447 1.78778 1.67497 3.53258 1.29942 5.90739C0.92388 8.2822 2.28318 10.5858 4.50861 11.3459C4.74829 11.3902 4.8341 11.2393 4.8341 11.1094C4.8341 10.9929 4.83026 10.6841 4.82883 10.2736C3.49858 10.5686 3.21767 9.61571 3.21767 9.61571C3.13009 9.3192 2.94183 9.06469 2.68701 8.89834C2.25557 8.59399 2.72008 8.60087 2.72008 8.60087C3.0272 8.64406 3.29751 8.83071 3.45208 9.10632C3.58292 9.35032 3.80334 9.53063 4.06438 9.60716C4.32542 9.6837 4.60545 9.65014 4.84225 9.51393C4.8645 9.26514 4.97242 9.03261 5.14665 8.85802C4.08533 8.73461 2.96935 8.31373 2.96935 6.43402C2.96346 5.94784 3.13948 5.47783 3.46119 5.12073C3.31563 4.69754 3.33277 4.23336 3.50912 3.82268C3.50912 3.82268 3.91036 3.69041 4.82355 4.32469C5.60677 4.10442 6.43335 4.10442 7.21656 4.32469C8.13024 3.68992 8.53099 3.82268 8.53099 3.82268C8.70817 4.23317 8.72532 4.69767 8.57893 5.12073C8.90181 5.4778 9.07768 5.94904 9.0698 6.43598C9.0698 8.32061 7.95287 8.73461 6.88772 8.85606C7.11749 9.09701 7.23533 9.42756 7.21129 9.76371C7.21129 10.4196 7.20554 10.9487 7.20554 11.1094C7.20554 11.2407 7.29086 11.3931 7.53486 11.345C9.75936 10.5835 11.1172 8.27979 10.7409 5.90561C10.3646 3.53143 8.36516 1.78754 6.02006 1.78809Z" fill="#271700"/>
</svg>
