<svg width="10" height="11" viewBox="0 0 10 11" fill="none" xmlns="http://www.w3.org/2000/svg">
<path fill-rule="evenodd" clip-rule="evenodd" d="M4.98404 1.64957C6.26275 1.64957 6.41417 1.65517 6.91705 1.6776C7.38442 1.69815 7.63679 1.77664 7.80504 1.84205C8.02751 1.92801 8.18828 2.03265 8.35466 2.19897C8.52291 2.36716 8.62573 2.526 8.71173 2.74838C8.77716 2.91656 8.85568 3.17071 8.87624 3.63602C8.89867 4.14057 8.90428 4.29194 8.90428 5.56828C8.90428 6.84648 8.89867 6.99785 8.87624 7.50054C8.85568 7.96772 8.77716 8.21999 8.71173 8.38818C8.62573 8.61056 8.52104 8.77127 8.35466 8.93758C8.18641 9.10577 8.02751 9.20855 7.80504 9.29451C7.63679 9.35991 7.38255 9.4384 6.91705 9.45896C6.4123 9.48138 6.26088 9.48699 4.98404 9.48699C3.70533 9.48699 3.55391 9.48138 3.05103 9.45896C2.58366 9.4384 2.33129 9.35991 2.16304 9.29451C1.94057 9.20855 1.7798 9.1039 1.61342 8.93758C1.44517 8.7694 1.34235 8.61056 1.25635 8.38818C1.19092 8.21999 1.1124 7.96585 1.09184 7.50054C1.06941 6.99598 1.0638 6.84461 1.0638 5.56828C1.0638 4.29007 1.06941 4.1387 1.09184 3.63602C1.1124 3.16884 1.19092 2.91656 1.25635 2.74838C1.34235 2.526 1.44704 2.36529 1.61342 2.19897C1.78167 2.03079 1.94057 1.92801 2.16304 1.84205C2.33129 1.77664 2.58553 1.69815 3.05103 1.6776C3.55391 1.65517 3.70533 1.64957 4.98404 1.64957ZM4.98404 0.788086C3.68477 0.788086 3.52213 0.793692 3.01177 0.816117C2.50328 0.838541 2.15369 0.920765 1.85084 1.03849C1.5349 1.16183 1.26757 1.32441 1.00211 1.59164C0.734775 1.85699 0.572133 2.12422 0.448749 2.43817C0.330973 2.74277 0.248717 3.09035 0.226284 3.59864C0.203851 4.11067 0.198242 4.27325 0.198242 5.57201C0.198242 6.87078 0.203851 7.03335 0.226284 7.54352C0.248717 8.05181 0.330973 8.40126 0.448749 8.70399C0.572133 9.01981 0.734775 9.28703 1.00211 9.55239C1.26757 9.81775 1.5349 9.9822 1.84897 10.1037C2.15369 10.2214 2.50141 10.3036 3.0099 10.326C3.52026 10.3485 3.6829 10.3541 4.98217 10.3541C6.28144 10.3541 6.44408 10.3485 6.95444 10.326C7.46293 10.3036 7.81252 10.2214 8.11537 10.1037C8.42944 9.9822 8.69677 9.81775 8.96223 9.55239C9.2277 9.28703 9.39221 9.01981 9.51372 8.70586C9.6315 8.40126 9.71375 8.05368 9.73619 7.54538C9.75862 7.03522 9.76423 6.87265 9.76423 5.57388C9.76423 4.27512 9.75862 4.11254 9.73619 3.60238C9.71375 3.09409 9.6315 2.74464 9.51372 2.4419C9.39595 2.12422 9.23331 1.85699 8.96597 1.59164C8.70051 1.32628 8.43318 1.16183 8.11911 1.04036C7.81439 0.922634 7.46667 0.84041 6.95818 0.817985C6.44595 0.793692 6.28331 0.788086 4.98404 0.788086ZM4.98404 3.11464C3.62682 3.11464 2.52571 4.21532 2.52571 5.57201C2.52571 6.92871 3.62682 8.02938 4.98404 8.02938C6.34126 8.02938 7.44237 6.92871 7.44237 5.57201C7.44237 4.21532 6.34126 3.11464 4.98404 3.11464ZM4.98404 7.16603C4.10353 7.16603 3.3894 6.45218 3.3894 5.57201C3.3894 4.69185 4.10353 3.97799 4.98404 3.97799C5.86455 3.97799 6.57868 4.69185 6.57868 5.57201C6.57868 6.45218 5.86455 7.16603 4.98404 7.16603ZM7.53958 3.59115C7.85552 3.59115 8.1135 3.33514 8.1135 3.01745C8.1135 2.70164 7.85552 2.44375 7.53958 2.44375C7.22364 2.44375 6.96566 2.69977 6.96566 3.01745C6.96566 3.33327 7.22177 3.59115 7.53958 3.59115Z" fill="#271700"/>
</svg>
