<svg width="43" height="32" viewBox="0 0 43 32" fill="none" xmlns="http://www.w3.org/2000/svg">
<path d="M3.22508 12.2721C-0.550355 18.277 0.614804 26.6667 0.614804 26.6667C0.614804 26.6667 11.0927 23.2518 15.5595 20.777L26.9972 14.4397C26.9972 14.4397 21.5629 20.1503 17.6291 22.9408C12.6393 26.4804 4.25893 30.5088 4.25893 30.5088C4.25893 30.5088 19.8962 33.7587 28.319 29.3591C33.2347 26.7915 34.0844 25.7865 37.1473 21.2464C41.1163 15.363 42.962 0.0167293 42.962 0.0167293C42.962 0.0167293 37.3958 1.90535 25.693 3.0108C13.9903 4.11624 7.07787 6.14405 3.22508 12.2721Z" fill="url(#paint0_linear_1273_1714)"/>
<defs>
<linearGradient id="paint0_linear_1273_1714" x1="21.2878" y1="3.58947" x2="36.0181" y2="28.4034" gradientUnits="userSpaceOnUse">
<stop stop-color="#6BE370"/>
<stop offset="1" stop-color="#3B8D3E"/>
</linearGradient>
</defs>
</svg>
