<svg width="12" height="13" viewBox="0 0 12 13" fill="none" xmlns="http://www.w3.org/2000/svg">
<path d="M3.35319 2.51207C3.91355 1.95171 4.82207 1.95171 5.38244 2.51207L7.07348 4.20311C7.26027 4.3899 7.26027 4.69274 7.07348 4.87953C6.88669 5.06632 6.58385 5.06632 6.39706 4.87953L4.70602 3.18849C4.51923 3.0017 4.21639 3.0017 4.0296 3.18849L2.67677 4.54132C2.48998 4.72811 2.48998 5.03095 2.67677 5.21774L4.36781 6.90878C4.5546 7.09557 4.5546 7.39841 4.36781 7.5852C4.18102 7.77199 3.87818 7.77199 3.69139 7.5852L2.00035 5.89416C1.43999 5.33379 1.43999 4.42527 2.00035 3.8649L3.35319 2.51207Z" fill="#271700"/>
<path d="M7.7499 5.55595C7.93669 5.36916 8.23953 5.36916 8.42632 5.55595L10.1174 7.24699C10.6777 7.80735 10.6777 8.71588 10.1174 9.27624L8.76452 10.6291C8.20416 11.1894 7.29563 11.1894 6.73527 10.6291L5.04423 8.93803C4.85744 8.75125 4.85744 8.44841 5.04423 8.26162C5.23102 8.07483 5.53386 8.07483 5.72065 8.26162L7.41169 9.95266C7.59848 10.1394 7.90132 10.1394 8.08811 9.95266L9.44094 8.59983C9.62773 8.41304 9.62773 8.1102 9.44094 7.92341L7.7499 6.23236C7.56311 6.04558 7.56311 5.74273 7.7499 5.55595Z" fill="#271700"/>
<path d="M4.87512 4.71043C4.68834 4.52364 4.38549 4.52364 4.19871 4.71043C4.01192 4.89721 4.01192 5.20006 4.19871 5.38684L7.24259 8.43072C7.42937 8.61751 7.73222 8.61751 7.919 8.43072C8.10579 8.24393 8.10579 7.94109 7.919 7.7543L4.87512 4.71043Z" fill="#271700"/>
</svg>
