<svg width="50" height="16" viewBox="0 0 50 16" fill="none" xmlns="http://www.w3.org/2000/svg">
<rect width="50" height="15.8" fill="white"/>
<path d="M5.5 11.6858V4H11.1344C13.1753 4 14.4021 5.45037 14.4021 7.84861C14.4021 10.2469 13.1753 11.6858 11.1344 11.6858H5.5ZM10.8738 5.1877H6.74847V10.4981H10.8738C12.296 10.4981 13.1862 9.4817 13.1862 7.84861C13.1862 6.21552 12.296 5.1877 10.8738 5.1877Z" fill="black"/>
<path d="M15.5929 11.6858V4H24.0607V5.1877H16.8414V6.36398H23.9522V7.55168H16.8414V10.4981H24.0607V11.6858H15.5929Z" fill="black"/>
<path d="M25.2511 11.8V4H32.5356C33.5453 4 34.1532 4.66237 34.1532 5.77013C34.1532 6.87789 33.5453 7.55168 32.5356 7.55168H26.4996V11.8H25.2511ZM32.2099 5.1877H26.4996V6.36398H32.2099C32.6876 6.36398 32.9373 6.18126 32.9373 5.77013C32.9373 5.359 32.6768 5.1877 32.2099 5.1877Z" fill="black"/>
<path d="M35.0882 8.53963V7.67402H35.7766V5.95111H36.6865V7.67402H38.3322V8.53963H36.6865V10.0295C36.6865 10.429 36.8527 10.687 37.3432 10.687H38.4113V11.5526H37.2562C36.1564 11.5526 35.7766 10.9617 35.7766 10.0628V8.53963H35.0882Z" fill="black"/>
<path d="M41.0028 8.53963C40.5123 8.53963 40.1879 8.79765 40.1879 9.19716V11.5526H39.278V5.95111H40.1879V7.97365C40.3778 7.79054 40.6389 7.67402 40.9474 7.67402H43.0204C44.1202 7.67402 44.5 8.26496 44.5 9.16387V11.5526H43.5901V9.19716C43.5901 8.79765 43.424 8.53963 42.9334 8.53963H41.0028Z" fill="black"/>
</svg>
