<svg width="10" height="9" viewBox="0 0 10 9" fill="none" xmlns="http://www.w3.org/2000/svg">
<path fill-rule="evenodd" clip-rule="evenodd" d="M2.66317 0.265625H7.22118C7.57119 0.26562 7.86007 0.265615 8.09539 0.284842C8.3398 0.304811 8.56447 0.347668 8.7755 0.455194C9.10276 0.621943 9.36884 0.888017 9.53559 1.21528C9.63935 1.41892 9.68289 1.63526 9.70375 1.86978C9.72685 1.94051 9.73111 2.01553 9.71727 2.08738C9.72516 2.28309 9.72516 2.50945 9.72516 2.76959V6.02317C9.72516 6.37318 9.72517 6.66205 9.70594 6.89737C9.68597 7.14178 9.64311 7.36645 9.53559 7.57748C9.36884 7.90475 9.10276 8.17082 8.7755 8.33757C8.56447 8.4451 8.3398 8.48795 8.09539 8.50792C7.86007 8.52715 7.5712 8.52714 7.22119 8.52714H2.66316C2.31315 8.52714 2.02428 8.52715 1.78896 8.50792C1.54455 8.48795 1.31988 8.4451 1.10885 8.33757C0.781584 8.17082 0.51551 7.90475 0.348761 7.57748C0.241235 7.36645 0.198377 7.14178 0.178408 6.89737C0.159182 6.66205 0.159186 6.37318 0.159192 6.02316V2.7696C0.159188 2.50946 0.159184 2.28309 0.167076 2.08738C0.153234 2.01553 0.157498 1.94051 0.180593 1.86978C0.201459 1.63526 0.245001 1.41892 0.348761 1.21528C0.51551 0.888017 0.781584 0.621943 1.10885 0.455194C1.31988 0.347668 1.54455 0.304811 1.78896 0.284842C2.02428 0.265615 2.31316 0.26562 2.66317 0.265625ZM1.02883 2.92551V6.0052C1.02883 6.37766 1.02916 6.63085 1.04515 6.82656C1.06073 7.01719 1.08896 7.11467 1.12361 7.18268C1.20698 7.34631 1.34002 7.47935 1.50365 7.56272C1.57166 7.59737 1.66915 7.6256 1.85978 7.64118C2.05548 7.65717 2.30867 7.65751 2.68113 7.65751H7.20322C7.57567 7.65751 7.82886 7.65717 8.02457 7.64118C8.2152 7.6256 8.31269 7.59737 8.38069 7.56272C8.54433 7.47935 8.67736 7.34631 8.76074 7.18268C8.79539 7.11467 8.82362 7.01719 8.83919 6.82656C8.85518 6.63085 8.85552 6.37766 8.85552 6.0052V2.92551L6.0163 5.2607C6.00762 5.26784 5.99866 5.27465 5.98945 5.28109C5.97258 5.2929 5.95587 5.30464 5.9393 5.31627C5.70247 5.48257 5.49452 5.62858 5.25768 5.68762C5.05051 5.73926 4.83384 5.73926 4.62667 5.68762C4.38983 5.62858 4.18188 5.48257 3.94505 5.31627C3.92848 5.30464 3.91177 5.2929 3.8949 5.28109C3.88569 5.27464 3.87673 5.26784 3.86805 5.2607L1.02883 2.92551ZM8.8232 1.82611C8.80724 1.7231 8.78565 1.65897 8.76074 1.61009C8.67736 1.44645 8.54433 1.31342 8.38069 1.23004C8.31269 1.19539 8.2152 1.16716 8.02457 1.15159C7.82886 1.1356 7.57567 1.13526 7.20322 1.13526H2.68113C2.30867 1.13526 2.05548 1.1356 1.85978 1.15159C1.66915 1.16716 1.57166 1.19539 1.50365 1.23004C1.34002 1.31342 1.20698 1.44645 1.12361 1.61009C1.0987 1.65897 1.07711 1.7231 1.06115 1.82611L4.40738 4.5783C4.71252 4.79165 4.77858 4.82924 4.83701 4.84381C4.90606 4.86102 4.97829 4.86102 5.04734 4.84381C5.10577 4.82924 5.17182 4.79165 5.47697 4.5783L8.8232 1.82611Z" fill="#271700"/>
</svg>
