<svg width="28" height="28" viewBox="0 0 28 28" fill="none" xmlns="http://www.w3.org/2000/svg">
<path fill-rule="evenodd" clip-rule="evenodd" d="M28 14C28 21.732 21.732 28 14 28C6.26801 28 0 21.732 0 14C0 6.26801 6.26801 0 14 0C21.732 0 28 6.26801 28 14ZM14 24.0915C8.49363 24.0915 6.19574 20.6604 5.70417 19.796C5.63182 19.6688 5.5992 19.5244 5.62681 19.3806C5.7147 18.9229 6.09079 17.8242 7.7 16.8001C9.60182 15.5899 11.7458 15.1729 14 15.1729C16.2542 15.1729 18.3982 15.5899 20.3 16.8001C22.0211 17.8953 22.3346 18.9907 22.3895 19.4156C22.4051 19.5369 22.3749 19.6546 22.3152 19.7615C21.8674 20.5645 19.5827 24.0915 14 24.0915ZM10.8463 12.5741C10.8463 12.5741 9.77738 10.9579 9.9967 9.33546C10.2205 7.67983 11.4985 6.56252 13.8898 5.15198C16.281 3.74144 17.2851 2.78889 17.2851 2.78889C17.2851 2.78889 18.391 6.1469 18.1185 7.76373C17.9081 9.01142 17.8249 9.30494 17.0261 10.3321C15.6573 12.0921 12.0001 13 12.0001 13C12.0001 13 13.3961 11.321 14.1157 10.0854C14.6831 9.11136 15.2854 7.38224 15.2854 7.38224L13.4622 9.84728C12.7502 10.8099 10.8463 12.5741 10.8463 12.5741Z" fill="#7AC87D"/>
</svg>
