<svg width="24" height="24" viewBox="0 0 24 24" fill="none" xmlns="http://www.w3.org/2000/svg">
<path fill-rule="evenodd" clip-rule="evenodd" d="M24 12C24 18.6274 18.6274 24 12 24C5.37258 24 0 18.6274 0 12C0 5.37258 5.37258 0 12 0C18.6274 0 24 5.37258 24 12ZM12.0001 20.6498C7.28034 20.6498 5.31072 17.7089 4.88938 16.968C4.82736 16.8589 4.7994 16.7352 4.82306 16.612C4.8984 16.2197 5.22076 15.2779 6.60008 14.4001C8.23021 13.3628 10.0679 13.0053 12.0001 13.0053C13.9323 13.0053 15.7699 13.3628 17.4001 14.4001C18.8753 15.3389 19.144 16.2777 19.191 16.6419C19.2045 16.7459 19.1785 16.8468 19.1274 16.9384C18.7436 17.6268 16.7853 20.6498 12.0001 20.6498ZM9.29674 10.7778C9.29674 10.7778 8.38053 9.39245 8.56851 8.00183C8.76035 6.58271 9.85581 5.62502 11.9054 4.41599C13.955 3.20695 14.8157 2.39048 14.8157 2.39048C14.8157 2.39048 15.7636 5.26877 15.53 6.65462C15.3498 7.72407 15.2784 7.97566 14.5937 8.85611C13.4205 10.3647 10.2857 11.1429 10.2857 11.1429C10.2857 11.1429 11.4823 9.70368 12.0991 8.64465C12.5854 7.80974 13.1017 6.32764 13.1017 6.32764L11.539 8.44053C10.9286 9.26567 9.29674 10.7778 9.29674 10.7778Z" fill="#D9D9D9"/>
</svg>
