<svg width="13" height="12" viewBox="0 0 13 12" fill="none" xmlns="http://www.w3.org/2000/svg">
<path fill-rule="evenodd" clip-rule="evenodd" d="M7.63062 7.59197C7.08116 7.93397 6.43247 8.13152 5.73764 8.13152C3.75646 8.13152 2.15039 6.52546 2.15039 4.54428C2.15039 2.5631 3.75646 0.957031 5.73764 0.957031C7.71882 0.957031 9.32488 2.5631 9.32488 4.54428C9.32488 5.48447 8.96318 6.34018 8.37134 6.97986L11.098 9.70651C11.2848 9.8933 11.2848 10.1961 11.098 10.3829C10.9112 10.5697 10.6084 10.5697 10.4216 10.3829L7.63062 7.59197ZM8.36828 4.54428C8.36828 5.99714 7.1905 7.17492 5.73764 7.17492C4.28477 7.17492 3.10699 5.99714 3.10699 4.54428C3.10699 3.09141 4.28477 1.91363 5.73764 1.91363C7.1905 1.91363 8.36828 3.09141 8.36828 4.54428Z" fill="#271700"/>
</svg>
