<svg width="36" height="38" viewBox="0 0 36 38" fill="none" xmlns="http://www.w3.org/2000/svg">
<path d="M29.2033 15.5994H3.94631C3.39001 15.5994 2.94919 16.0629 2.99479 16.6174C3.15336 18.5454 3.6283 22.7673 4.8748 25.3494C4.99597 25.6003 5.12861 25.8483 5.27016 26.0922C7.48737 29.9128 12.1575 31.1994 16.5748 31.1994C20.9921 31.1994 25.6622 29.9128 27.8794 26.0922C28.021 25.8483 28.1536 25.6003 28.2748 25.3494C29.5213 22.7673 29.9962 18.5454 30.1548 16.6174C30.2004 16.0629 29.7596 15.5994 29.2033 15.5994Z" fill="url(#paint0_linear_1075_18120)"/>
<path d="M32.1748 17.5496H30.2248V19.4996C31.3018 19.4996 32.1748 20.3726 32.1748 21.4496V23.3996C32.1748 24.4765 31.3018 25.3496 30.2248 25.3496H28.2748L27.2998 27.2996H30.2248C32.3787 27.2996 34.1248 25.5535 34.1248 23.3996V19.4996C34.1248 18.4226 33.2518 17.5496 32.1748 17.5496Z" fill="url(#paint1_linear_1075_18120)" stroke="url(#paint2_linear_1075_18120)" stroke-width="1.17"/>
<ellipse cx="17.55" cy="35.1001" rx="17.55" ry="1.95" fill="#2D6730"/>
<path d="M21.5257 21.701L23.4002 19.1448L25.2747 21.701C25.3237 21.7678 25.3502 21.8486 25.3502 21.9316V24.9594C25.3502 25.1748 25.1756 25.3494 24.9602 25.3494H21.8402C21.6248 25.3494 21.4502 25.1748 21.4502 24.9594V21.9316C21.4502 21.8486 21.4766 21.7678 21.5257 21.701Z" fill="#D2F8D3"/>
<path d="M23.4002 15.5994V19.1448M23.4002 19.1448L21.5257 21.701C21.4766 21.7678 21.4502 21.8486 21.4502 21.9316V24.9594C21.4502 25.1748 21.6248 25.3494 21.8402 25.3494H24.9602C25.1756 25.3494 25.3502 25.1748 25.3502 24.9594V21.9316C25.3502 21.8486 25.3237 21.7678 25.2747 21.701L23.4002 19.1448Z" stroke="#D2F8D3" stroke-width="0.975"/>
<path d="M6.8252 21.45C6.8252 21.45 6.82534 24.6751 8.7752 26.325C10.3405 27.6494 12.6752 28.275 12.6752 28.275" stroke="#D2F8D3" stroke-width="1.365" stroke-linecap="round"/>
<path d="M20.1504 1.97476C20.6271 2.53809 20.8654 2.87392 20.8654 2.98226C20.8654 3.09059 20.8112 3.20976 20.7029 3.33976C20.1937 3.91392 19.5979 4.49351 18.9154 5.07851C18.7637 5.20851 18.65 5.27351 18.5741 5.27351C18.4658 5.27351 18.4116 5.19226 18.4116 5.02976C18.4116 4.85642 18.4821 4.62892 18.6229 4.34726C18.7746 4.06559 18.8504 3.90309 18.8504 3.85976C18.8504 3.81642 18.8287 3.79476 18.7854 3.79476C18.7529 3.79476 18.7041 3.80559 18.6391 3.82726C17.3933 4.27142 16.5266 4.97017 16.0391 5.92351C15.9308 6.14017 15.8766 6.31892 15.8766 6.45976C15.8766 6.74142 16.0933 7.00684 16.5266 7.25601C16.5916 7.29934 16.8841 7.45642 17.4041 7.72726C18.455 8.29059 19.1158 8.74559 19.3866 9.09226C19.82 9.63392 20.0366 10.1648 20.0366 10.6848C20.0366 10.8906 19.9771 11.1073 19.8579 11.3348C19.7496 11.5514 19.6087 11.7139 19.4354 11.8223C17.6046 12.9598 15.9741 13.5285 14.5441 13.5285C13.7858 13.5285 13.4066 13.1818 13.4066 12.4885C13.4066 12.261 13.4825 12.0443 13.6341 11.8385C13.3741 11.6543 13.2441 11.4593 13.2441 11.2535C13.2441 11.0368 13.3904 10.8202 13.6829 10.6035C14.3762 10.0835 15.4921 9.82351 17.0304 9.82351C17.1929 9.82351 17.3879 9.88309 17.6154 10.0023C17.8429 10.1106 18.0271 10.2298 18.1679 10.3598C18.4387 10.2081 18.5741 10.0727 18.5741 9.95351C18.5741 9.83434 18.5037 9.71517 18.3629 9.59601C18.1571 9.44434 17.7725 9.24392 17.2091 8.99476C16.6566 8.74559 16.3046 8.57767 16.1529 8.49101C15.6979 8.23101 15.3458 7.85726 15.0966 7.36976C14.8583 6.88226 14.7391 6.36767 14.7391 5.82601C14.7391 5.27351 14.8746 4.77517 15.1454 4.33101C15.4271 3.87601 15.8171 3.48059 16.3154 3.14476C17.0737 2.63559 18.0216 2.16976 19.1591 1.74726C19.3108 1.70392 19.43 1.68226 19.5166 1.68226C19.7658 1.68226 19.9771 1.77976 20.1504 1.97476ZM17.0629 10.9773C16.9546 10.9556 16.83 10.9448 16.6891 10.9448C16.5483 10.9448 16.2721 11.0098 15.8604 11.1398C15.4596 11.2698 15.2591 11.416 15.2591 11.5785C15.2591 11.6435 15.2971 11.676 15.3729 11.676C15.6654 11.676 16.2287 11.4431 17.0629 10.9773Z" fill="url(#paint3_linear_1075_18120)"/>
<defs>
<linearGradient id="paint0_linear_1075_18120" x1="16.5748" y1="15.5994" x2="16.5748" y2="31.1994" gradientUnits="userSpaceOnUse">
<stop stop-color="#D1F9D3"/>
<stop offset="1" stop-color="#2B642D"/>
</linearGradient>
<linearGradient id="paint1_linear_1075_18120" x1="30.7123" y1="17.5496" x2="30.7123" y2="27.2996" gradientUnits="userSpaceOnUse">
<stop stop-color="#D1F9D3"/>
<stop offset="1" stop-color="#2B642D"/>
</linearGradient>
<linearGradient id="paint2_linear_1075_18120" x1="30.7123" y1="17.5496" x2="30.7123" y2="27.2996" gradientUnits="userSpaceOnUse">
<stop stop-color="#B2E4B4"/>
<stop offset="1" stop-color="#2B642D"/>
</linearGradient>
<linearGradient id="paint3_linear_1075_18120" x1="17.1504" y1="-0.000244141" x2="17.1504" y2="15.9998" gradientUnits="userSpaceOnUse">
<stop stop-color="#F7FFF8"/>
<stop offset="1" stop-color="#B2E4B4"/>
</linearGradient>
</defs>
</svg>
