<svg width="18" height="19" viewBox="0 0 18 19" fill="none" xmlns="http://www.w3.org/2000/svg">
<path d="M14.9762 8H2.02385C1.73857 8 1.51251 8.23773 1.53589 8.52205C1.61721 9.51079 1.86077 11.6759 2.5 13C2.56213 13.1287 2.63016 13.2559 2.70275 13.381C3.83978 15.3402 6.2347 16 8.5 16C10.7653 16 13.1602 15.3402 14.2973 13.381C14.3698 13.2559 14.4379 13.1287 14.5 13C15.1392 11.6759 15.3828 9.51079 15.4641 8.52205C15.4875 8.23773 15.2614 8 14.9762 8Z" fill="url(#paint0_linear_559_1014)"/>
<path d="M16.5 9H15.5V10C16.0523 10 16.5 10.4477 16.5 11V12C16.5 12.5523 16.0523 13 15.5 13H14.5L14 14H15.5C16.6046 14 17.5 13.1046 17.5 12V10C17.5 9.44772 17.0523 9 16.5 9Z" fill="url(#paint1_linear_559_1014)" stroke="url(#paint2_linear_559_1014)" stroke-width="0.6"/>
<ellipse cx="9" cy="18" rx="9" ry="1" fill="#7AC87D"/>
<path d="M11.0336 10.9496L12 9.5L12.9664 10.9496C12.9883 10.9825 13 11.0211 13 11.0606V12.8C13 12.9105 12.9105 13 12.8 13H11.2C11.0895 13 11 12.9105 11 12.8V11.0606C11 11.0211 11.0117 10.9825 11.0336 10.9496Z" fill="white"/>
<path d="M12 7.5V9.5M12 9.5L11.0336 10.9496C11.0117 10.9825 11 11.0211 11 11.0606V12.8C11 12.9105 11.0895 13 11.2 13H12.8C12.9105 13 13 12.9105 13 12.8V11.0606C13 11.0211 12.9883 10.9825 12.9664 10.9496L12 9.5Z" stroke="white" stroke-width="0.5"/>
<path d="M3.5 11C3.5 11 3.50007 12.6539 4.5 13.5C5.30272 14.1792 6.5 14.5 6.5 14.5" stroke="white" stroke-width="0.7" stroke-linecap="round"/>
<path d="M10.3333 0.833333C10.5778 1.12222 10.7 1.29444 10.7 1.35C10.7 1.40556 10.6722 1.46667 10.6167 1.53333C10.3556 1.82778 10.05 2.125 9.7 2.425C9.62222 2.49167 9.56389 2.525 9.525 2.525C9.46944 2.525 9.44167 2.48333 9.44167 2.4C9.44167 2.31111 9.47778 2.19444 9.55 2.05C9.62778 1.90556 9.66667 1.82222 9.66667 1.8C9.66667 1.77778 9.65556 1.76667 9.63333 1.76667C9.61667 1.76667 9.59167 1.77222 9.55833 1.78333C8.91944 2.01111 8.475 2.36944 8.225 2.85833C8.16944 2.96944 8.14167 3.06111 8.14167 3.13333C8.14167 3.27778 8.25278 3.41389 8.475 3.54167C8.50833 3.56389 8.65833 3.64444 8.925 3.78333C9.46389 4.07222 9.80278 4.30556 9.94167 4.48333C10.1639 4.76111 10.275 5.03333 10.275 5.3C10.275 5.40556 10.2444 5.51667 10.1833 5.63333C10.1278 5.74444 10.0556 5.82778 9.96667 5.88333C9.02778 6.46667 8.19167 6.75833 7.45833 6.75833C7.06944 6.75833 6.875 6.58056 6.875 6.225C6.875 6.10833 6.91389 5.99722 6.99167 5.89167C6.85833 5.79722 6.79167 5.69722 6.79167 5.59167C6.79167 5.48056 6.86667 5.36944 7.01667 5.25833C7.37222 4.99167 7.94444 4.85833 8.73333 4.85833C8.81667 4.85833 8.91667 4.88889 9.03333 4.95C9.15 5.00556 9.24444 5.06667 9.31667 5.13333C9.45556 5.05556 9.525 4.98611 9.525 4.925C9.525 4.86389 9.48889 4.80278 9.41667 4.74167C9.31111 4.66389 9.11389 4.56111 8.825 4.43333C8.54167 4.30556 8.36111 4.21944 8.28333 4.175C8.05 4.04167 7.86944 3.85 7.74167 3.6C7.61944 3.35 7.55833 3.08611 7.55833 2.80833C7.55833 2.525 7.62778 2.26944 7.76667 2.04167C7.91111 1.80833 8.11111 1.60556 8.36667 1.43333C8.75556 1.17222 9.24167 0.933333 9.825 0.716667C9.90278 0.694445 9.96389 0.683333 10.0083 0.683333C10.1361 0.683333 10.2444 0.733333 10.3333 0.833333ZM8.75 5.45C8.69444 5.43889 8.63056 5.43333 8.55833 5.43333C8.48611 5.43333 8.34444 5.46667 8.13333 5.53333C7.92778 5.6 7.825 5.675 7.825 5.75833C7.825 5.79167 7.84444 5.80833 7.88333 5.80833C8.03333 5.80833 8.32222 5.68889 8.75 5.45Z" fill="url(#paint3_linear_559_1014)"/>
<defs>
<linearGradient id="paint0_linear_559_1014" x1="8.5" y1="8" x2="8.5" y2="16" gradientUnits="userSpaceOnUse">
<stop stop-color="#B2E4B4"/>
<stop offset="1" stop-color="#75C278"/>
</linearGradient>
<linearGradient id="paint1_linear_559_1014" x1="15.75" y1="9" x2="15.75" y2="14" gradientUnits="userSpaceOnUse">
<stop stop-color="#B2E4B4"/>
<stop offset="1" stop-color="#75C278"/>
</linearGradient>
<linearGradient id="paint2_linear_559_1014" x1="15.75" y1="9" x2="15.75" y2="14" gradientUnits="userSpaceOnUse">
<stop stop-color="#B2E4B4"/>
<stop offset="1" stop-color="#75C278"/>
</linearGradient>
<linearGradient id="paint3_linear_559_1014" x1="9" y1="0" x2="9" y2="8" gradientUnits="userSpaceOnUse">
<stop stop-color="#B2E4B4"/>
<stop offset="1" stop-color="#B2E4B4"/>
</linearGradient>
</defs>
</svg>
